<svg width="32" height="32" viewBox="0 0 32 32" fill="none" xmlns="http://www.w3.org/2000/svg">
<path d="M16.25 3.00001C8.93158 3.00001 3 8.9327 3 16.25C3 23.5684 8.93158 29.5 16.25 29.5C23.5673 29.5 29.5 23.5684 29.5 16.25C29.5005 15.0011 29.3247 13.7585 28.9777 12.5588C28.9127 12.4008 28.7891 12.2741 28.6329 12.205C28.4766 12.136 28.2997 12.13 28.1391 12.1882C27.9785 12.2465 27.8466 12.3646 27.771 12.5178C27.6954 12.671 27.6819 12.8475 27.7333 13.0104H27.7311C28.0237 14.0516 28.175 15.1392 28.175 16.25C28.1793 17.8167 27.8728 19.3686 27.2734 20.8161C26.6739 22.2635 25.7933 23.5777 24.6825 24.6825C23.5777 25.7933 22.2635 26.674 20.8161 27.2735C19.3687 27.8729 17.8167 28.1794 16.25 28.175C14.6833 28.1793 13.1314 27.8729 11.6839 27.2734C10.2365 26.6739 8.92232 25.7933 7.81748 24.6825C6.70662 23.5778 5.82595 22.2636 5.22646 20.8161C4.62697 19.3687 4.32057 17.8167 4.325 16.25C4.32069 14.6833 4.62715 13.1314 5.22663 11.6839C5.82611 10.2365 6.70672 8.92233 7.81748 7.81749C8.92224 6.70663 10.2364 5.82596 11.6839 5.22647C13.1313 4.62698 14.6833 4.32058 16.25 4.32501C19.0943 4.32501 21.7852 5.31434 23.9328 7.12959C23.797 7.4741 23.7835 7.85474 23.8945 8.20801C24.0054 8.56128 24.2342 8.86583 24.5425 9.07087C24.8509 9.2759 25.2202 9.36902 25.5889 9.3347C25.9576 9.30037 26.3033 9.14068 26.5685 8.88226C26.8337 8.62383 27.0023 8.28229 27.0461 7.91461C27.09 7.54693 27.0064 7.17533 26.8094 6.86179C26.6124 6.54826 26.3139 6.31174 25.9636 6.19169C25.6133 6.07163 25.2325 6.07531 24.8846 6.20209C22.4842 4.13263 19.4193 2.99603 16.25 3.00001ZM14.66 9.49251L10.0225 21.5301H12.9265L13.685 19.4896H18.0675L17.2736 17.2349H14.3884L16.2655 12.0553L19.6045 21.529H22.5095L17.8731 9.49251H14.66Z" fill="#61DAFB"/>
</svg>
