<svg width="32" height="32" viewBox="0 0 32 32" fill="none" xmlns="http://www.w3.org/2000/svg">
<path fill-rule="evenodd" clip-rule="evenodd" d="M10.4067 20.4225C10.2413 19.8994 10.131 19.2267 10.1249 18.8811L10.109 18.861C10.1029 18.52 10.1786 17.9454 10.1786 17.9454L4.99126 22.1962C4.08463 22.93 2.8649 22.9254 2.29008 22.192C1.72461 21.4726 2.01435 20.3282 2.91163 19.6415C2.92064 19.6344 2.93086 19.627 2.94083 19.6197C2.94327 19.6179 2.9457 19.6162 2.94809 19.6144L12.4817 12.3274L7.15408 12.3376L7.15547 12.3344C6.24885 12.3344 5.65814 11.7224 5.82825 10.9891C5.99182 10.265 6.82834 9.69607 7.69758 9.69514H7.7116L18.2266 9.68393L14.773 6.87654L14.7753 6.8742C14.2379 6.43511 14.308 5.7363 14.9108 5.31402C15.5044 4.89642 16.4203 4.89502 16.9624 5.31169C16.9672 5.31479 16.9713 5.31823 16.9755 5.3217C16.9782 5.32399 16.981 5.32628 16.9839 5.32851L25.2557 11.6813L25.2538 11.6827C26.0763 12.318 26.768 13.0701 27.3008 13.9343C27.8849 14.8685 28.2663 15.9008 28.4224 16.9986C28.5023 17.5638 28.5205 18.129 28.477 18.6895C28.4326 19.2594 28.3219 19.8293 28.1466 20.3899C27.8008 21.5016 27.212 22.5293 26.3895 23.4401C25.5483 24.3744 24.5108 25.1218 23.3144 25.659C22.0573 26.2223 20.6927 26.5119 19.2767 26.5138C17.8606 26.5138 16.496 26.2288 15.2389 25.673C14.0425 25.1405 13.0051 24.3931 12.1639 23.4635C11.346 22.562 10.7544 21.5343 10.4067 20.4225ZM19.3033 22.5106C20.9203 22.5106 22.4204 21.8893 23.4906 20.8009L23.4878 20.8056C24.0112 20.2731 24.3954 19.6658 24.6328 19.0118C24.865 18.3719 24.9552 17.6946 24.8963 17.0126C24.8403 16.3399 24.6407 15.7046 24.3215 15.1301C24.0084 14.5649 23.5785 14.0529 23.0504 13.6213C22.0082 12.7753 20.6857 12.3208 19.2977 12.3227C17.9144 12.3227 16.5918 12.7851 15.5497 13.6306C15.0216 14.0651 14.5907 14.5789 14.2786 15.1441C13.9594 15.7186 13.7603 16.3586 13.7037 17.0266C13.6439 17.7086 13.7341 18.3859 13.9664 19.0259C14.2047 19.6752 14.5879 20.2824 15.1113 20.8149C16.1815 21.9033 17.6817 22.5134 19.3033 22.5106ZM16.8685 14.7984C16.2142 15.3496 15.7824 16.1297 15.7329 17.0126L15.7375 17.0173C15.6861 17.9235 16.0506 18.7643 16.6909 19.3902C17.3405 20.0283 18.2705 20.4272 19.3126 20.4272C20.3548 20.4272 21.2801 20.0255 21.9343 19.3902C22.5723 18.7643 22.9372 17.9188 22.8877 17.0126C22.8363 16.1297 22.4064 15.3496 21.7521 14.7984C21.1119 14.2561 20.252 13.9249 19.3126 13.9249C18.3686 13.9249 17.5087 14.2566 16.8685 14.7984Z" fill="#61DAFB"/>
</svg>
