<svg width="32" height="32" viewBox="0 0 32 32" fill="none" xmlns="http://www.w3.org/2000/svg">
<path d="M4.32031 2.75L6.44141 26.5957L15.9805 29.25L25.5508 26.5957L27.6797 2.75H4.32031ZM16 4.69922H25.5586L23.7227 25.0742L16 27.2246V23.9805L10.0078 22.3164L9.59766 17.7305H12.5371L12.7461 20.0625L16 20.9375V16.2656H12.7852L12.7188 15.5996L12.5859 14.127L12.5195 13.3359H16V10.3398H8.94141L8.88477 9.68359L8.75195 8.20117L8.67578 7.41992H16V4.69922ZM16 7.41992V10.3398H20.1367L19.8711 13.3359H16V16.2656H19.6035L19.2617 20.0625L16 20.9375V23.9805L21.9922 22.3164L22.0391 21.8203L22.541 16.2656H22.5449L23.2578 8.20117L23.3242 7.41992H16Z" fill="#61DAFB"/>
</svg>
