<svg width="32" height="32" viewBox="0 0 32 32" fill="none" xmlns="http://www.w3.org/2000/svg">
<path d="M14.6227 29.225C13.9077 29.1778 13.1571 29.0279 12.325 28.7662C11.9968 28.663 11.6328 28.5576 11.5159 28.5319C11.0857 28.4375 9.10863 27.4762 8.99275 27.3051C8.97783 27.283 8.84137 27.1974 8.68951 27.1148C7.89361 26.6819 6.28979 25.2025 5.511 24.1829C4.86284 23.3343 4.80237 23.2506 4.80003 23.1995C4.79884 23.1733 4.71681 23.0298 4.61776 22.8806C4.38247 22.5261 4.04808 21.8604 3.55634 20.7675C3.50782 20.6596 3.4461 20.4684 3.41918 20.3426C3.39227 20.2168 3.29615 19.8748 3.20558 19.5827C3.11501 19.2907 2.97721 18.7529 2.89936 18.3878C2.76318 17.7492 2.75773 17.6595 2.7556 16.0246C2.75314 14.1299 2.78832 13.8396 3.18611 12.4716C3.28887 12.1182 3.40621 11.7046 3.44687 11.5525C3.48753 11.4003 3.65279 10.9992 3.81413 10.661C3.97546 10.3228 4.10746 10.0262 4.10746 10.0019C4.10746 9.97754 4.23832 9.74541 4.39826 9.48601C4.5582 9.22662 4.7375 8.91828 4.79671 8.80081C4.85593 8.68333 5.00306 8.46825 5.12368 8.32284C5.24429 8.17743 5.39738 7.97278 5.46387 7.86805C5.79881 7.34051 7.37909 5.76617 7.93119 5.41002C8.06263 5.32522 8.26251 5.17682 8.37537 5.08022C8.48823 4.98362 8.67942 4.85486 8.80023 4.79408C8.92104 4.73329 9.23212 4.5527 9.49151 4.39277C9.7509 4.23283 9.98304 4.10197 10.0074 4.10197C10.0317 4.10197 10.3283 3.96997 10.6665 3.80863C11.0046 3.6473 11.4058 3.48203 11.558 3.44138C11.7101 3.40072 12.1237 3.28338 12.4771 3.18061C13.8451 2.78282 14.1354 2.74765 16.03 2.75011C17.665 2.75223 17.7547 2.75768 18.3933 2.89386C18.7584 2.97171 19.2961 3.10951 19.5882 3.20008C19.8803 3.29065 20.2223 3.38678 20.3481 3.41369C20.4739 3.44061 20.6651 3.50232 20.773 3.55084C21.8659 4.04259 22.5316 4.37697 22.8861 4.61227C23.0353 4.71132 23.1788 4.79334 23.205 4.79454C23.3538 4.80133 24.7748 5.96383 25.4062 6.59528C26.0451 7.23413 27.156 8.59244 27.156 8.73468C27.156 8.75774 27.2494 8.91376 27.3634 9.08138C27.6886 9.55918 28.464 11.1728 28.5432 11.5364C28.5655 11.639 28.6694 11.995 28.774 12.3275C28.8786 12.6601 29.0262 13.2336 29.1021 13.6021C29.2324 14.2352 29.2402 14.3625 29.2442 15.9183C29.2471 17.0441 29.2267 17.6906 29.1797 17.963C29.0719 18.5869 28.8667 19.4293 28.6948 19.9532C28.6083 20.2168 28.4994 20.552 28.4527 20.698C28.3278 21.0889 27.6263 22.5169 27.3317 22.9798C26.2102 24.7424 24.7605 26.1914 22.9745 27.3348C22.4771 27.6532 21.2502 28.2644 20.8097 28.4133C19.6358 28.81 18.9408 28.9983 18.1055 29.1457C17.6025 29.2345 15.4931 29.2825 14.6227 29.225ZM18.9785 25.1976C19.7776 24.7947 20.6334 23.9629 20.893 23.3367C20.9498 23.1998 21.0294 23.0281 21.07 22.9551C21.1729 22.7697 21.3646 22.1061 21.4611 21.6008C21.5286 21.2477 21.546 20.4433 21.5639 16.8344L21.5854 12.4929H20.1753H18.7651V16.419C18.7651 18.8722 18.7441 20.501 18.7091 20.7605C18.5728 21.772 18.2061 22.5942 17.6377 23.1626C17.3539 23.4464 16.7391 23.8615 16.1966 24.1356L16.0445 24.2124L16.3559 24.3362C16.5272 24.4042 16.9422 24.5954 17.2781 24.7608C17.614 24.9263 18.0441 25.136 18.234 25.2267C18.4239 25.3174 18.5796 25.3931 18.5802 25.3948C18.5808 25.3966 18.76 25.3078 18.9785 25.1976ZM15.6583 21.4238C16.038 21.3645 16.51 21.285 16.7072 21.2471L17.0656 21.1783V14.6317V8.08501H15.6583H14.251V10.227C14.251 11.4051 14.2391 12.3809 14.2246 12.3954C14.21 12.4099 14.0368 12.3878 13.8395 12.3464C13.3594 12.2454 12.2126 12.2882 11.568 12.4312C11.0749 12.5407 10.4971 12.7875 10.0254 13.0903C9.42526 13.4754 8.75675 14.3305 8.4487 15.1069C8.04566 16.1227 8.06438 18.0971 8.4861 19.0506C8.77238 19.698 9.31181 20.3394 9.9227 20.7588C10.3261 21.0358 11.5534 21.4408 12.286 21.5388C12.3882 21.5525 13.0335 21.5565 13.7199 21.5477C14.6468 21.5358 15.1455 21.5039 15.6583 21.4238ZM12.3357 19.2222C11.9317 19.0844 11.4472 18.7019 11.2494 18.3644C10.908 17.7818 10.8898 16.2263 11.217 15.5912C11.3425 15.3477 11.8436 14.8371 12.076 14.7159C12.186 14.6586 12.4395 14.586 12.6394 14.5546C12.9947 14.4988 14.0895 14.5237 14.1969 14.5901C14.2322 14.6119 14.251 15.428 14.251 16.9501V19.2768L14.0518 19.3097C13.9423 19.3278 13.5898 19.3422 13.2685 19.3418C12.8044 19.3412 12.6126 19.3166 12.3357 19.2222ZM21.5798 9.51891V8.08501H20.1724H18.7651V9.51891V10.9528H20.1724H21.5798V9.51891Z" fill="#61DAFB"/>
</svg>
