<svg width="32" height="32" viewBox="0 0 32 32" fill="none" xmlns="http://www.w3.org/2000/svg">
<path fill-rule="evenodd" clip-rule="evenodd" d="M7.94156 26.5393C10.0216 28.1773 12.5432 29.1073 15.2591 29.2381C15.8765 29.2679 16.762 29.249 17.3456 29.1937C19.8047 28.9608 22.0127 28.1051 23.9224 26.6451C24.8485 25.9369 26.0444 24.7276 26.707 23.8291C28.1599 21.8587 28.9323 19.8448 29.2004 17.3279C29.2658 16.7138 29.2667 15.2824 29.202 14.6821C28.9523 12.3641 28.298 10.5142 27.0898 8.7101C26.6742 8.08956 26.2269 7.52697 25.7227 6.99066C23.9497 5.10482 21.8995 3.83989 19.5893 3.20643C18.4318 2.88906 17.3411 2.7497 16 2.74782C13.8729 2.74484 12.0487 3.15093 10.2245 4.03347C8.5924 4.82312 7.12795 5.98091 5.77567 7.55073C5.46584 7.9104 4.82809 8.80796 4.53293 9.29974C3.57219 10.9005 3.00852 12.6502 2.79904 14.6821C2.73427 15.3104 2.73353 16.646 2.7976 17.2977C3.04335 19.7973 3.8252 21.8317 5.32514 23.8744C5.9433 24.7163 7.02268 25.8157 7.94156 26.5393ZM14.1316 20.0194C13.5477 20.5577 12.938 20.8633 12.0777 21.0488C11.8403 21.1001 11.6502 21.1148 11.1165 21.1234C10.4225 21.1345 10.2294 21.1191 9.76428 21.0155C8.12404 20.6501 6.99277 19.5082 6.53924 17.7601C6.32984 16.9529 6.241 15.9347 6.32071 15.2555C6.39877 14.5903 6.56497 14.0069 6.83755 13.4413C7.09841 12.9 7.33894 12.5608 7.75897 12.1419C8.38784 11.5147 9.01596 11.1659 9.8919 10.9575C10.3211 10.8554 11.1986 10.8271 11.6758 10.8999C12.597 11.0405 13.2045 11.3523 13.8853 12.0339C14.5719 12.7214 15.0088 13.5815 15.227 14.6755C15.34 15.2414 15.4155 16.0893 15.3729 16.3124L15.3579 16.3905H11.6724H7.98692V16.5234C7.98692 16.7316 8.04596 17.2599 8.09705 17.5089C8.2437 18.2235 8.73974 18.9343 9.34114 19.2916C9.86203 19.6011 10.3368 19.7224 11.041 19.7259C11.9601 19.7305 12.5534 19.5098 13.1016 18.9593C13.3503 18.7096 13.5153 18.4233 13.5852 18.1204L13.6216 17.9629H14.4177C15.0411 17.9629 15.2138 17.9712 15.2138 18.0013C15.2138 18.0546 15.1028 18.4548 15.0273 18.6735C14.8628 19.1504 14.5269 19.6551 14.1316 20.0194ZM8.18135 14.1405C8.11897 14.3063 8.05213 14.6141 8.00633 14.9467L7.99072 15.0601H10.8312C13.4095 15.0601 13.6717 15.0556 13.6717 15.0119C13.6717 14.8983 13.5433 14.3481 13.4655 14.1283C13.1303 13.1809 12.3194 12.4918 11.3385 12.3205C10.9774 12.2575 10.4009 12.2773 10.0705 12.3641C9.19303 12.5947 8.52771 13.2203 8.18135 14.1405ZM23.242 10.8608L25.2528 10.8723L21.7452 15.5948L25.7135 21.1379H23.541L20.6803 16.9132L17.8294 21.1369L15.8075 21.1001L19.5915 15.673L16.0564 10.8721L18.2257 10.8944L20.6782 14.455L23.242 10.8608Z" fill="#61DAFB"/>
</svg>
