<svg width="32" height="32" viewBox="0 0 32 32" fill="none" xmlns="http://www.w3.org/2000/svg">
<path fill-rule="evenodd" clip-rule="evenodd" d="M16.2174 3H20.25C22.4771 3 24.2826 4.80546 24.2826 7.03261C24.2826 9.25972 22.4771 11.0652 20.25 11.0652H16.2174V3ZM16.2174 16.25C16.2174 14.0229 18.0229 12.2174 20.25 12.2174C22.4771 12.2174 24.2826 14.0229 24.2826 16.25C24.2826 18.4771 22.4771 20.2826 20.25 20.2826C18.0229 20.2826 16.2174 18.4771 16.2174 16.25ZM7 25.4674C7 23.2403 8.80546 21.4348 11.0326 21.4348H15.0652V25.4674C15.0652 27.6945 13.2597 29.5 11.0326 29.5C8.80546 29.5 7 27.6945 7 25.4674ZM7 7.03261C7 9.25972 8.80546 11.0652 11.0326 11.0652H15.0652V3H11.0326C8.80546 3 7 4.80546 7 7.03261ZM11.0326 20.2826C8.80546 20.2826 7 18.4771 7 16.25C7 14.0229 8.80546 12.2174 11.0326 12.2174H15.0652V20.2826H11.0326Z" fill="#61DAFB"/>
</svg>
