<svg width="32" height="32" viewBox="0 0 32 32" fill="none" xmlns="http://www.w3.org/2000/svg">
<path d="M6.48089 5.28076C6.00978 5.66069 6.03116 5.95515 6.42625 6.35939C6.82135 6.76363 6.81547 6.83976 6.36868 7.18929C6.25623 7.27744 6.13736 7.35634 6.02795 7.44752C5.94783 7.49723 5.89051 7.5765 5.86839 7.66815C5.84628 7.75981 5.86114 7.85649 5.90978 7.93727C6.12256 8.40229 5.95486 8.72407 5.46871 8.89124C5.31596 8.9303 5.16586 8.97907 5.01933 9.03727C4.64249 9.22267 4.58472 9.52975 4.86738 9.89448C4.441 10.0993 4.07689 10.414 3.8125 10.8063V12.1408C3.91611 12.2965 4.00364 12.4624 4.07373 12.6359C4.24693 13.1951 4.42023 13.7454 4.55396 14.3259C4.94992 16.2232 5.65442 18.0427 6.6394 19.712C7.53299 21.2134 8.50548 22.6538 9.86101 23.8027C11.5496 25.2855 13.6154 26.2723 15.83 26.6539C16.7814 26.8089 17.7451 26.9088 18.7056 27C19.3034 27.0586 19.9043 27.081 20.5048 27.0671C21.1232 27.0514 21.7402 27.0007 22.3528 26.9151C23.1735 26.8148 24.0061 26.8148 24.7933 26.4835C25.1479 26.3321 25.5434 26.3053 25.9153 26.4076C26.018 26.4214 26.1226 26.4088 26.2191 26.3708C26.5505 26.2644 26.8786 26.161 27.2129 26.0668C27.4256 26.006 27.6413 25.9638 27.854 25.9C28.1276 25.8149 28.155 25.5963 28.1277 25.3592C28.1262 25.3058 28.1139 25.2533 28.0914 25.2048C28.0689 25.1564 28.0367 25.113 27.9968 25.0774C27.957 25.0418 27.9103 25.0148 27.8596 24.9979C27.8089 24.981 27.7553 24.9747 27.7021 24.9793H27.0366C26.681 24.955 26.3254 24.9092 25.8725 24.8635C25.6263 25.1492 25.231 25.0672 24.8146 24.9639C24.5516 24.9176 24.2855 24.8912 24.0186 24.8849L23.4107 24.8362L23.7568 24.3833C23.8479 24.2754 23.9302 24.1605 24.0031 24.0395C24.149 23.7538 24.0305 23.5718 23.7265 23.5718C23.5376 23.582 23.3549 23.6429 23.1976 23.7481C22.9273 23.9416 22.6804 24.1659 22.4621 24.4165C22.3646 24.5479 22.2279 24.6449 22.0717 24.6936C21.9155 24.7422 21.7479 24.74 21.593 24.6872C19.1552 24.19 16.9504 22.9001 15.3225 21.0186C13.9099 19.4155 13.0258 17.416 12.7906 15.2924C12.6893 14.4454 12.6024 13.5943 12.5294 12.7392C12.4777 12.1526 12.4291 11.5448 12.4291 10.9369C12.4199 10.4445 12.6361 10.2837 13.1254 10.3688C13.2939 10.4111 13.4601 10.4618 13.6235 10.5208C13.8484 10.5907 14.0763 10.6633 14.3074 10.7119C14.4053 10.745 14.5111 10.7463 14.6099 10.7159C14.7087 10.6854 14.7953 10.6246 14.8576 10.5421C14.7985 10.3577 14.697 10.1896 14.5614 10.0512C14.4258 9.91291 14.2597 9.80821 14.0764 9.74548C13.6053 9.51145 13.107 9.34124 12.6267 9.1376C12.2679 9.0023 11.9186 8.84284 11.5813 8.66032C11.2774 8.47187 10.8276 8.42956 10.6696 7.99189C10.6422 7.91592 10.4867 7.87024 10.3834 7.8429C10.198 7.79425 10.0096 7.77625 9.82421 7.7307C9.52319 7.70977 9.23722 7.59117 9.00973 7.39291C9.04014 6.80023 8.95517 6.71498 8.34727 6.71498H7.96731C7.47801 6.70282 7.40189 6.61798 7.51738 6.14688C7.58052 5.98375 7.57815 5.80253 7.51076 5.64112C7.44338 5.4797 7.3162 5.35058 7.15582 5.28077L6.48089 5.28076ZM6.85188 5.44461C7.03121 5.44765 7.15577 5.53926 7.21045 5.80672L6.43579 5.84296C6.49352 5.60284 6.61178 5.44157 6.85188 5.44461ZM7.94005 7.75799C8.25059 7.76692 8.55301 7.85918 8.81565 8.02512L8.69393 8.48697C8.25018 8.46265 8.11933 8.33852 7.94005 7.75799ZM9.65208 8.52081C9.68499 8.71924 9.70932 8.85292 9.7304 8.97672C9.73188 8.99074 9.73188 9.00487 9.7304 9.01889C9.33834 8.96416 9.6332 9.49023 9.19553 9.49023L8.87915 9.13167C8.70285 8.93715 8.65441 8.94612 8.49331 9.21359L7.71207 9.04025L9.65208 8.52081ZM12.0177 9.31094C12.126 9.30688 12.2341 9.30638 12.3412 9.31094C12.7697 9.32918 12.9035 9.59664 12.6451 9.91882C12.4657 10.1368 12.2318 10.3035 11.9672 10.402C11.128 10.7019 10.2494 10.8771 9.35938 10.9221C8.89936 10.9461 8.45018 11.0705 8.04333 11.2866C7.78798 11.4172 7.53299 11.5416 7.27161 11.651C7.08924 11.7301 6.90068 11.7912 6.7183 11.6119C6.53598 11.4325 6.12273 11.5932 5.92819 11.8303C5.89953 11.8649 5.86432 11.8934 5.82458 11.9143C5.78485 11.9352 5.74138 11.948 5.69667 11.952C5.57622 11.9559 5.45734 11.9239 5.35513 11.86C5.25292 11.7962 5.172 11.7034 5.12263 11.5935C5.0709 11.478 5.1682 11.2958 5.1986 11.1316C4.65756 10.9097 4.55104 11.2684 4.42035 12.0434C4.1164 11.5723 4.1652 11.2531 4.64235 11.0099C4.92562 10.8885 5.21703 10.7869 5.51444 10.706C5.72418 11.3382 6.14361 11.548 6.6542 11.3079C6.59347 11.1833 6.44745 11.019 6.48089 10.9369C6.58118 10.6846 6.27729 10.7362 6.27729 10.5113C7.70275 10.2772 9.06745 9.66337 10.5324 9.46884C10.5904 9.63561 10.6735 9.79255 10.7788 9.93426C10.8396 9.98291 11.0067 9.93426 11.186 9.93426L11.043 9.38693C11.3643 9.36642 11.6928 9.32334 12.0177 9.31094ZM9.34043 9.92653C9.01758 9.91883 8.70214 9.96496 8.37159 10.2317C9.50223 10.1587 9.50218 10.1588 9.66632 9.94612C9.55615 9.93772 9.44801 9.92904 9.34043 9.92653ZM7.37372 10.7256C7.23695 10.7317 7.15278 10.808 7.1315 10.9915C7.3716 11.0827 7.55407 11.3318 7.88841 11.2497C7.75768 10.9245 7.60869 10.7425 7.43544 10.7273C7.41363 10.7253 7.39334 10.7251 7.37372 10.7256ZM11.8443 10.9238C12.0321 10.9157 12.1323 11.0181 12.162 11.2711C12.1796 11.5748 12.1796 11.8792 12.162 12.1829L11.7577 11.8428C11.6597 11.9179 11.58 12.0142 11.5246 12.1245C11.4692 12.2348 11.4395 12.3562 11.4377 12.4797C11.4359 12.6031 11.462 12.7253 11.5142 12.8372C11.5664 12.9491 11.6432 13.0477 11.739 13.1256L12.0429 12.7546C12.1251 12.8633 12.1953 12.9805 12.2524 13.1043C12.2717 13.2136 12.2769 13.3249 12.2682 13.4355C12.3077 13.8458 12.1343 14.2713 12.3501 14.6786C12.3834 14.802 12.3834 14.9321 12.3501 15.0555C12.3348 15.1923 12.2651 15.3229 12.4231 15.4414C12.4344 15.4849 12.4359 15.5303 12.4274 15.5745C12.419 15.6186 12.4009 15.6603 12.3745 15.6966C12.0675 15.8304 12.1435 16.0977 12.0919 16.4381L12.4931 15.9335L13.2346 18.6417L12.961 19.0097C13.4716 19.3471 13.49 19.3681 13.6633 19.8301L13.824 19.5808C14.0703 19.8847 14.3105 20.2069 14.5263 20.4926C14.7421 20.7783 14.9337 21.0827 15.1555 21.3866C15.4009 21.6219 15.5881 21.9111 15.7023 22.2314C15.7631 22.4867 16.049 22.7148 16.274 22.9063C16.7488 23.2885 17.3003 23.5643 17.891 23.7148C18.1194 23.7731 18.3242 23.9004 18.4775 24.0793C18.6326 24.2714 18.8264 24.4285 19.0463 24.5407C19.2662 24.6528 19.5073 24.7173 19.7538 24.73C19.8025 24.73 19.8666 24.7056 19.894 24.73C20.3012 25.1008 20.8542 25.1036 21.3465 25.2951C21.2474 25.374 21.1298 25.4263 21.0049 25.4471C20.8799 25.4679 20.7517 25.4564 20.6324 25.4138C20.1279 25.2558 19.6537 25.0977 19.1127 24.9063C18.5717 24.7148 18.0428 24.4836 17.4683 24.7875C17.21 24.6538 17.0155 24.8514 16.8605 24.9395C16.7054 25.0276 16.5929 24.9212 16.5108 24.7905C16.4679 24.7064 16.4045 24.6345 16.3265 24.5814C16.2485 24.5283 16.1583 24.4957 16.0644 24.4866C15.4838 24.4379 15.4349 24.3557 15.596 23.7083L14.8089 23.6116L15.3591 23.4833C14.6449 22.4135 13.5992 21.9033 12.502 21.4626C12.6266 21.3319 12.8 21.2376 12.8273 21.11C12.8329 21.0317 12.8226 20.9531 12.797 20.8789C12.7714 20.8048 12.731 20.7365 12.6783 20.6784C12.5289 20.4993 12.3421 20.355 12.1309 20.2557C11.8123 20.1631 11.5314 19.9714 11.329 19.7084C11.401 19.6916 11.472 19.6704 11.5415 19.6449C11.8728 19.4869 11.9522 19.3107 11.7546 19.0068C11.5681 18.7611 11.365 18.5284 11.1468 18.3104L11.0613 18.3716L11.2679 19.043C11.136 18.8018 10.9814 18.5738 10.806 18.3621C10.6115 18.1463 10.5019 18.1922 10.3073 18.4505C10.1949 18.414 10.0885 18.332 10.0034 18.3502C9.69641 18.411 9.60566 18.192 9.60566 18.0005C9.59422 17.8113 9.53601 17.6279 9.43625 17.4666C9.33648 17.3054 9.19827 17.1715 9.03401 17.0768C8.99191 17.0374 8.95429 16.9934 8.92182 16.9456C9.14366 16.9395 9.42633 17.0859 9.52965 16.8518C9.63303 16.6178 9.42015 16.4776 9.3077 16.3134L9.06426 15.9792L8.4172 16.4476V15.5358C7.91877 15.6513 8.18025 16.0309 8.05868 16.2832L7.72383 16.4078L8.42612 17.1463C8.08265 17.4837 8.02194 17.4809 7.89125 17.0828C7.82607 16.8034 7.66601 16.5552 7.43833 16.3805C7.39877 16.3562 7.34099 16.3044 7.34099 16.2862C7.48992 15.8667 7.11347 15.7486 6.91594 15.5328C7.15298 14.9493 7.29229 14.9037 7.59623 15.2289C7.54131 15.4166 7.50981 15.6104 7.50243 15.8059C7.50484 15.9072 7.54409 16.0041 7.61282 16.0785C7.68154 16.1529 7.77504 16.1997 7.8758 16.2102C7.98092 15.8504 7.99728 15.4705 7.92347 15.1031C8.06987 15.1751 8.24054 15.2843 8.33186 15.0675C8.3582 14.9897 8.3667 14.907 8.35674 14.8255C8.34677 14.744 8.31859 14.6658 8.27429 14.5967C8.17705 14.469 7.97045 14.4293 7.76375 14.329L7.873 14.6145L7.50851 14.5112L7.91279 15.0948C7.67872 14.8607 7.45971 14.6237 7.06151 14.6875C6.87914 14.7119 6.68794 14.4139 6.79735 14.2863C6.99792 14.0492 7.08908 13.6875 7.50851 13.6784C7.92799 13.6692 8.05279 13.4052 7.87954 13.0313C7.8583 13.0161 7.8583 13.0038 7.8583 12.9886C7.58785 12.4324 7.59074 12.4384 8.21687 12.3564C8.38665 12.3554 8.55187 12.3012 8.68925 12.2014C8.82662 12.1017 8.92924 11.9613 8.98265 11.8001C9.2532 11.7697 9.57564 11.8579 9.67902 11.4962L10.5599 11.6666L10.2744 11.2593L11.077 11.0919C11.2624 11.0597 11.4461 11.0181 11.6273 10.9673C11.7101 10.9414 11.7817 10.9265 11.8443 10.9238ZM8.79427 13.0496C8.76694 13.5147 8.78919 13.557 9.37484 13.7697C9.24719 13.2652 9.24714 13.2654 8.79427 13.0496ZM8.72365 13.7104C8.56813 13.7036 8.40273 13.7436 8.22263 13.8576C8.37765 14.3864 8.86675 14.3651 9.24366 14.5171L9.3078 14.4108L8.67858 13.873L9.41407 14.1194L9.43839 14.0161C9.21421 13.8641 8.98285 13.7216 8.72365 13.7104ZM11.2104 14.9766C10.8882 15.5693 10.9977 16.0616 11.5357 16.4963C11.791 15.9218 11.5296 15.4781 11.2104 14.9766ZM9.19857 15.2651C9.21997 15.7604 9.4085 16.234 9.73343 16.6085C10.0374 16.5628 10.2562 16.4781 10.3413 16.1407C10.0435 15.7425 9.80037 15.2985 9.19857 15.2651ZM5.55125 15.3838C5.5999 15.4081 5.63618 15.4325 5.63618 15.4325C5.81816 15.7144 5.89857 16.0498 5.86412 16.3835C5.83371 16.5507 6.00671 16.7572 6.07664 16.9487C6.15231 17.1261 6.18467 17.319 6.17105 17.5114L5.25922 15.5418L5.31387 15.5019L5.56911 15.8059L5.63616 15.7572L5.55125 15.3838ZM9.02521 17.42L9.68474 18.7634C9.5813 18.752 9.47939 18.7295 9.38079 18.6963C9.03426 18.5382 8.69976 18.3621 8.35021 18.2071C8.10403 18.0947 8.04348 17.8701 7.93407 17.6604C8.11949 17.5114 8.25028 17.6661 8.38705 17.6995C8.47822 17.7239 8.56304 17.7754 8.65121 17.8058C8.99767 17.9304 9.08296 17.8575 9.02519 17.5019C9.0238 17.4746 9.02383 17.4473 9.02521 17.42ZM6.7878 19.0459L7.52688 20.1222C7.55428 20.1618 7.56645 20.2196 7.59993 20.2439C8.00719 20.5205 8.15608 20.9459 8.31109 21.3866C8.38822 21.5748 8.53042 21.729 8.71177 21.8212C8.88362 21.9224 9.03276 22.058 9.14991 22.2195C9.5815 22.6602 9.90682 23.207 10.5147 23.4715C10.6417 23.5062 10.7573 23.574 10.8496 23.6679C10.9419 23.7619 11.0076 23.8787 11.04 24.0063C10.8713 24.0027 10.705 23.9647 10.5514 23.8947C10.3978 23.8246 10.26 23.7241 10.1466 23.5991C9.86897 23.3675 9.60328 23.122 9.35052 22.8636C8.9717 22.4549 8.61936 22.0224 8.29564 21.5689C7.82452 20.885 7.36835 20.1586 6.91243 19.4413C6.83951 19.3288 6.76984 19.213 6.69991 19.1005L6.7878 19.0459ZM9.58739 19.1979L10.2682 19.3956L10.013 19.9031L10.8334 21.0761L10.7574 21.1587C10.5506 21.0131 10.3284 20.8907 10.0949 20.7936C9.80922 20.7054 9.78479 20.426 9.61762 20.2801C9.44582 20.0863 9.31084 19.8628 9.21932 19.6206L9.58739 19.1979ZM10.39 21.7832C10.8478 21.7658 11.2384 22.0317 11.6479 22.1886C11.0066 22.4227 10.475 22.2768 10.1893 21.8087C10.2577 21.7934 10.3245 21.7857 10.39 21.7832ZM12.3228 24.8422L15.7149 26.2888C15.0243 26.2398 14.3484 26.0648 13.7209 25.7724C13.4017 25.2861 12.8 25.2221 12.3228 24.8422ZM18.5934 25.0398L18.4865 25.526L17.9428 25.3829C18.0081 25.2705 18.1038 25.1786 18.2188 25.118C18.3339 25.0573 18.4637 25.0302 18.5934 25.0398ZM22.6538 25.193C23.1098 25.1736 23.5656 25.303 24.0215 25.3349V25.4684L22.1979 25.3681V25.2707C22.3499 25.2221 22.5019 25.1995 22.6538 25.193ZM18.1748 26.5263C19.0649 26.5414 19.9525 26.7046 20.8575 26.6385C19.663 26.9211 18.4834 26.7087 17.298 26.575H17.2834C17.5812 26.5332 17.8781 26.5213 18.1748 26.5263Z" fill="#61DAFB"/>
</svg>
