<svg width="32" height="32" viewBox="0 0 32 32" fill="none" xmlns="http://www.w3.org/2000/svg">
<path fill-rule="evenodd" clip-rule="evenodd" d="M28.0172 15.1375L16.432 3.49067C15.7774 2.83644 14.7303 2.83644 14.1414 3.49067L11.5888 5.97705L14.5995 8.9868C14.7959 8.92121 15.0576 8.85596 15.3193 8.85596C16.432 8.85596 17.3482 9.77187 17.3482 10.8842C17.3482 11.1459 17.283 11.4076 17.2174 11.604L20.1626 14.5485C20.359 14.4829 20.6207 14.4177 20.8827 14.4177C21.4197 14.4207 21.9339 14.6354 22.3138 15.0151C22.6936 15.3948 22.9084 15.9089 22.9116 16.4459C22.9085 16.983 22.6937 17.4973 22.3139 17.877C21.934 18.2568 21.4198 18.4715 20.8827 18.4745C20.3456 18.4715 19.8313 18.2568 19.4515 17.877C19.0717 17.4973 18.8569 16.983 18.8538 16.4459C18.8538 16.1842 18.9194 15.9226 18.9846 15.7261L16.2356 12.9781V20.1755C16.8901 20.5028 17.3482 21.2223 17.3482 21.9421C17.3451 22.4792 17.1303 22.9934 16.7505 23.3732C16.3707 23.7529 15.8564 23.9676 15.3193 23.9707C14.7822 23.9676 14.268 23.7529 13.8881 23.3732C13.5083 22.9934 13.2935 22.4792 13.2904 21.9421C13.2904 21.0914 13.8141 20.3716 14.5995 20.0447V12.7164C13.8141 12.4547 13.2904 11.6696 13.2904 10.819C13.2904 10.5573 13.356 10.2956 13.4212 10.0991L10.4105 7.08939L2.49092 15.1375C1.83636 15.7917 1.83636 16.8388 2.49092 17.4278L14.0758 29.0093C14.7303 29.6636 15.7774 29.6636 16.3667 29.0093L27.9516 17.4278C28.6714 16.7735 28.6718 15.7265 28.0172 15.1375Z" fill="#61DAFB"/>
</svg>
