<svg width="32" height="32" viewBox="0 0 32 32" fill="none" xmlns="http://www.w3.org/2000/svg">
<path d="M15.9571 2.66382C14.6477 2.66382 13.5893 3.7222 13.5893 5.03156C13.5893 5.2655 13.6242 5.49084 13.6874 5.70416L8.22059 8.86057C8.06738 8.69878 7.88966 8.55507 7.68702 8.43735C6.55404 7.78606 5.10224 8.17269 4.45095 9.30566C3.79967 10.4386 4.18628 11.8906 5.31926 12.5418C5.52151 12.6581 5.73405 12.7406 5.95024 12.7924V19.1047C5.73654 19.1566 5.52632 19.238 5.32602 19.3532C4.19303 20.0112 3.80642 21.4564 4.45771 22.5893C5.10899 23.7223 6.55404 24.1089 7.69378 23.4576C7.8943 23.3412 8.06959 23.1988 8.22169 23.0391L13.6864 26.1943C13.6241 26.4066 13.5893 26.6307 13.5893 26.8634C13.5893 28.1728 14.6477 29.2312 15.957 29.2312C17.2664 29.2312 18.3248 28.166 18.3248 26.8634C18.3248 26.6026 18.2822 26.352 18.2045 26.1174L23.6359 22.9817C23.7998 23.166 23.9947 23.328 24.2203 23.4576C25.3532 24.1089 26.8052 23.7223 27.4564 22.5893C28.1145 21.4564 27.7277 20.0112 26.588 19.3532C26.3879 19.2382 26.1777 19.1572 25.9639 19.1054V12.7924C26.1801 12.7407 26.3925 12.6581 26.5947 12.5418C27.7277 11.8838 28.1145 10.4386 27.4632 9.30566C26.8051 8.17269 25.3601 7.78606 24.2271 8.43735C24.0234 8.55569 23.8448 8.70024 23.691 8.86309L18.225 5.70734C18.2888 5.49307 18.3248 5.26679 18.3248 5.03156C18.3248 3.7222 17.2664 2.66382 15.9571 2.66382ZM14.2551 6.67675C14.2767 6.69927 14.3011 6.71937 14.3237 6.74102L7.16652 19.137C7.13664 19.1283 7.10686 19.1177 7.07642 19.1101V12.7867C7.679 12.6369 8.22214 12.2532 8.55545 11.6734C8.88831 11.0944 8.94848 10.4343 8.77806 9.83899L14.2551 6.67675ZM17.6547 6.67837L23.1349 9.84247C22.9657 10.4369 23.0265 11.0954 23.3587 11.6733C23.692 12.2531 24.2351 12.6368 24.8377 12.7866V19.1076C24.8078 19.115 24.7782 19.1257 24.7483 19.1343L17.5938 6.74267C17.6154 6.72224 17.6342 6.69957 17.6547 6.67837ZM15.2989 7.30393C15.508 7.36447 15.7282 7.3992 15.9571 7.3992C16.1868 7.3992 16.4084 7.36605 16.6182 7.30525L23.7701 19.6921C23.6101 19.8444 23.4676 20.0202 23.3519 20.2215C23.2369 20.4216 23.1548 20.6318 23.103 20.8456H8.81121C8.75918 20.6319 8.67732 20.4218 8.5622 20.2215C8.44602 20.0215 8.30377 19.8469 8.14442 19.6955L15.2989 7.30393ZM8.80828 21.9719H23.1053C23.1181 22.0239 23.1347 22.0747 23.1513 22.1256L17.7082 25.2683C17.2755 24.7933 16.6517 24.4956 15.9573 24.4956C15.2868 24.4956 14.6834 24.7743 14.253 25.2208L8.7816 22.0618C8.79046 22.0318 8.80053 22.0023 8.80828 21.9719Z" fill="#61DAFB"/>
</svg>
