<svg width="32" height="32" viewBox="0 0 32 32" fill="none" xmlns="http://www.w3.org/2000/svg">
<path d="M4.33008 2.75L6.45508 26.5547L15.9707 29.25L25.5449 26.5645L27.6699 2.75H4.33008ZM16.0293 4.67578H25.5449L23.7324 25.0566L16.0293 27.1816V24.1738H15.9805H15.9707L9.97461 22.5234L9.60547 17.9219H12.5078L12.7168 20.2461L15.9707 21.1289H15.9805V24.1738L21.9863 22.5234L22.0352 22.002L22.709 14.2969L22.8125 13.5195H21.9766H16.0293V10.5215H23.0586L23.1152 9.89453L23.2676 8.39453L23.3242 7.61719H16.0293V4.67578ZM8.67578 7.61719H15.9707V10.5215H11.8828L12.1387 13.5195H15.9707V16.4609H9.45313L8.73242 8.39453L8.67578 7.61719ZM16.0293 16.4609H19.6055L19.2441 20.2461L16.0293 21.1152V16.4609Z" fill="#61DAFB"/>
</svg>
