<svg width="32" height="32" viewBox="0 0 32 32" fill="none" xmlns="http://www.w3.org/2000/svg">
<path fill-rule="evenodd" clip-rule="evenodd" d="M24.8073 3H7.69271C5.09792 3 3 5.15171 3 7.81303V24.687C3 27.3483 5.09792 29.5 7.69271 29.5H24.8073C27.4021 29.5 29.5 27.3483 29.5 24.687V7.81303C29.5 5.15171 27.4021 3 24.8073 3ZM11.7008 18.8547H15.8083L16.7137 21.55C16.7358 21.6293 16.8131 21.6859 16.8904 21.6746H19.1981C19.3085 21.6746 19.3417 21.618 19.3085 21.4934L15.2783 9.82885C15.2673 9.77223 15.2231 9.73825 15.1348 9.73825H12.275C12.2198 9.74958 12.1756 9.8062 12.1867 9.86283C12.1867 10.112 12.1646 10.3611 12.1204 10.5989C12.0891 10.6952 12.0634 10.7858 12.0392 10.8707C12.0293 10.9057 12.0196 10.9396 12.01 10.9727L8.45458 21.4707C8.42145 21.6066 8.45458 21.6746 8.57604 21.6746H10.6519C10.7512 21.6859 10.8396 21.618 10.8617 21.516L11.7008 18.8547ZM15.1458 16.5558H12.3412C12.5069 16.0801 12.6725 15.5479 12.8271 14.9703C12.9365 14.6197 13.0416 14.2692 13.1451 13.924C13.2088 13.7116 13.2719 13.5013 13.335 13.2942C13.4896 12.8073 13.611 12.3203 13.7104 11.8333H13.7325C13.7756 11.9849 13.8187 12.1434 13.8637 12.309C13.8994 12.4405 13.9363 12.5763 13.9754 12.7167C14.0637 13.0451 14.1631 13.3735 14.2735 13.7246C14.3287 13.9001 14.3812 14.0728 14.4336 14.2455C14.4861 14.4182 14.5385 14.5909 14.5937 14.7665C14.6931 15.1062 14.7925 15.4346 14.8919 15.7404C14.9912 16.0348 15.0796 16.318 15.1458 16.5558ZM20.7881 11.3237C21.0531 11.5842 21.4065 11.7314 21.7708 11.7201C22.1462 11.7427 22.5217 11.5955 22.7756 11.3237C23.0406 11.0406 23.1731 10.6669 23.1621 10.2818C23.1731 9.90813 23.0406 9.54573 22.7977 9.27394C22.5548 9.01347 22.2235 8.87757 21.7929 8.87757C21.4285 8.87757 21.0752 9.01347 20.8102 9.27394C20.5452 9.53441 20.4017 9.8968 20.4127 10.2818C20.4017 10.6669 20.5342 11.0406 20.7881 11.3237ZM20.5342 12.8299V21.55C20.5342 21.6633 20.5894 21.7312 20.6998 21.7312H22.864C22.9633 21.7312 23.0075 21.6746 23.0075 21.55V12.8299C23.0075 12.728 22.9633 12.6714 22.864 12.6714H20.6777C20.5783 12.6714 20.5342 12.7167 20.5342 12.8299Z" fill="#61DAFB"/>
</svg>
