<svg width="32" height="32" viewBox="0 0 32 32" fill="none" xmlns="http://www.w3.org/2000/svg">
<path fill-rule="evenodd" clip-rule="evenodd" d="M4.02316 13.9083L13.8057 3.89787C14.9817 2.69417 17.0512 2.70727 18.2914 3.89787L28.4314 14.2622C31.4303 17.2611 27.4955 18.5459 24.2724 19.5983C23.1636 19.9604 22.139 20.2949 21.51 20.6623C21.0767 21.1044 21.7566 21.472 22.4868 21.8668C23.1987 22.2517 23.9584 22.6626 23.7812 23.1935C23.4017 24.33 22.6812 24.4961 21.7768 24.7045C20.9492 24.8952 19.9676 25.1214 18.9526 26.1594C18.5255 26.5959 18.9339 26.7936 19.3423 26.9914C19.7509 27.1892 20.1596 27.3871 19.7325 27.8241C18.1202 29.0037 14.8237 29.8252 14.5601 28.3848C14.33 27.1308 13.4784 26.9771 12.662 26.8298C12.1661 26.7403 11.6832 26.6532 11.3604 26.3233C10.9333 25.8867 11.3704 25.4369 11.8075 24.987C12.2446 24.5372 12.6817 24.0874 12.2546 23.6508C11.8269 23.2143 10.5357 22.7939 9.24452 22.3734C7.95282 21.9528 6.66112 21.5322 6.23395 21.0956C5.80681 20.6586 6.62559 20.279 7.4442 19.8995C8.26257 19.52 9.08076 19.1407 8.65373 18.7042C8.02215 18.3915 7.16732 18.1952 6.31376 17.9993C3.94925 17.4564 1.59458 16.9158 4.02316 13.9083ZM25.0424 23.1935C25.0424 23.6901 28.7016 24.0156 28.7016 23.0763C28.1802 21.5675 25.475 21.6694 25.0424 23.1935ZM8.55907 25.8325C9.42562 26.5818 10.764 25.6461 11.1653 24.6004C10.3257 23.4848 7.18279 24.6404 8.55907 25.8325ZM24.5837 24.2137C23.4666 25.2157 24.7089 26.2323 25.8099 25.5849C26.0553 25.3358 25.8034 24.4627 24.5837 24.2137ZM17.7001 4.59985L21.5704 8.53063C21.9374 8.90565 21.9323 9.63239 21.727 9.84138L19.8053 8.30416L19.4273 10.5805L17.8217 9.73288L15.2504 11.3575L14.3992 7.93279L13.0178 10.3227H10.906C10.0453 10.3227 9.9441 9.23043 10.7262 8.44835C11.6628 7.43732 12.6943 6.41294 13.5248 5.58809C13.9056 5.20989 14.2442 4.87364 14.512 4.59985C15.3684 3.72456 16.8605 3.74932 17.7001 4.59985ZM11.4646 19.246C11.726 19.4084 15.6801 20.2116 16.6464 20.3718C16.9814 20.4424 16.744 20.7876 16.2823 21.0206C15.241 21.2973 10.1902 19.246 11.4646 19.246Z" fill="#61DAFB"/>
</svg>
