<svg width="32" height="32" viewBox="0 0 32 32" fill="none" xmlns="http://www.w3.org/2000/svg">
<path d="M18.652 2.75C19.7629 7.12518 14.735 8.44585 12.9204 11.1709C11.6839 13.0273 13.5277 15.0229 16.039 17.2886C15.0597 15.0753 11.7383 13.1382 16.0405 9.74057C21.4055 5.50519 18.652 2.75 18.652 2.75ZM21.9722 8.16326C21.9722 8.16326 12.9002 10.4277 17.2331 15.4203C18.5114 16.8919 16.8961 18.2162 16.8961 18.2162C16.8961 18.2162 20.1425 16.5418 18.652 14.4437C17.2599 12.4872 16.1927 11.5151 21.9722 8.16326ZM23.7138 17.084C23.3562 17.0669 22.9711 17.1203 22.5744 17.2598C22.2955 17.3588 22.1494 17.5868 22.1494 17.5868C22.1494 17.5868 22.3251 17.5159 22.7184 17.4341C24.3229 17.0995 26.6215 19.5825 21.6496 22.166C21.6266 22.2275 21.5488 22.2957 21.5488 22.2956C27.3588 20.7683 26.2167 17.2039 23.7138 17.084ZM13.0097 17.3361C13.0097 17.3361 11.1384 17.2109 8.83811 18.3228C6.11808 19.6386 15.5675 20.2358 20.4583 18.9494C20.9668 18.6023 21.6698 18.3012 21.6698 18.3012C21.6698 18.3012 19.6671 18.659 17.6739 18.827C15.235 19.0314 12.6176 19.072 11.3042 18.8961C8.19346 18.4808 13.0097 17.3361 13.0097 17.3361ZM11.889 20.3424C7.40035 21.8322 14.3864 23.5218 20.6585 21.6878C19.9919 21.4527 19.5667 21.0223 19.5667 21.0223C16.5013 21.6125 14.73 21.5936 12.4868 21.3622C10.7522 21.1828 11.889 20.3424 11.889 20.3424ZM12.5228 23.2435C8.44817 24.3819 15.0014 26.7344 20.189 24.5111C19.3394 24.1806 18.7298 23.7995 18.7298 23.7995C16.4156 24.2375 15.343 24.2709 13.243 24.0314C11.5097 23.8321 12.5228 23.2435 12.5228 23.2435ZM9.88821 25.1679C8.13713 25.1004 4.16245 26.8492 7.5561 27.3992C18.1331 29.1145 26.8376 26.6273 24.0941 25.3898C24.0941 25.3898 24.8434 26.0068 23.2687 26.4845C20.2743 27.3916 10.8058 27.6654 8.1755 26.5205C7.23 26.1093 9.00206 25.5384 9.55978 25.4186C10.1414 25.2924 10.4745 25.3163 10.4745 25.3163C10.343 25.2237 10.1384 25.1776 9.88821 25.1679ZM25.7722 26.7395C25.7722 26.7395 25.4386 27.5952 21.8282 28.275C17.7549 29.0415 12.731 28.9521 9.75136 28.4608C9.75144 28.4608 10.3614 28.9655 13.498 29.1666C18.2703 29.4722 25.5986 28.9976 25.7722 26.7395Z" fill="#61DAFB"/>
</svg>
