<svg width="32" height="32" viewBox="0 0 32 32" fill="none" xmlns="http://www.w3.org/2000/svg">
<path d="M5.36133 2.75C3.91435 2.75 2.75 3.91435 2.75 5.36133V26.6387C2.75 28.0856 3.91435 29.25 5.36133 29.25H26.6387C28.0856 29.25 29.25 28.0856 29.25 26.6387V5.36133C29.25 3.91435 28.0856 2.75 26.6387 2.75H5.36133ZM23.4824 14.8809C24.9959 14.8543 25.9249 15.2534 26.6152 16.0234C26.8574 16.2829 27.0709 16.5678 27.252 16.873L25.2871 18.1211C25.1879 17.8897 25.0428 17.6809 24.8605 17.5074C24.6782 17.3338 24.4625 17.1991 24.2266 17.1113C23.5627 16.9255 22.7386 17.1397 22.5527 17.8301C22.4996 18.0691 22.4993 18.2533 22.6055 18.625C22.871 19.2357 23.8011 19.5013 24.5977 19.873C26.9343 20.829 27.7036 21.8383 27.916 23.0332C28.1019 24.0953 27.8644 24.7598 27.8379 24.8926C26.9616 27.8134 22.154 27.92 20.2422 25.9551C19.8173 25.5302 19.5788 25.2635 19.3398 24.7324L21.3574 23.5645C21.8885 24.4142 22.3941 24.8649 23.2969 25.0508C24.4918 25.2101 25.7128 24.7855 25.4473 23.4844C25.1817 22.4223 22.9518 22.1848 21.4648 21.043C21.0907 20.7665 20.7763 20.4173 20.5405 20.0163C20.3047 19.6153 20.1524 19.1707 20.0928 18.7094C20.0331 18.248 20.0673 17.7793 20.1934 17.3315C20.3194 16.8837 20.5346 16.466 20.8262 16.1035C21.251 15.5725 21.9686 15.1742 22.6855 14.9883L23.4824 14.8809ZM15.4902 15.0684H17.9863H18.0117V21.8926C18.0117 23.2999 18.0928 24.5476 17.5352 25.5566C17.1369 26.3532 16.3927 26.8829 15.543 27.1484C14.2153 27.4405 12.9403 27.2814 11.9844 26.6973C11.3488 26.2897 10.8421 25.7099 10.5234 25.0254L12.543 23.8027L12.6758 24.0156C12.8748 24.4262 13.2008 24.7618 13.6055 24.9727C14.0303 25.1054 14.9583 25.2103 15.3301 24.4668C15.5425 24.0951 15.4902 22.8202 15.4902 21.4395L15.4902 15.0684Z" fill="#61DAFB"/>
</svg>
