<svg width="32" height="32" viewBox="0 0 32 32" fill="none" xmlns="http://www.w3.org/2000/svg">
<path fill-rule="evenodd" clip-rule="evenodd" d="M16.9781 26.3354L16.885 26.4072C16.803 27.6859 16.5964 29.5 16.5964 29.5H15.7725C15.7725 29.5 15.5667 27.6757 15.4839 26.4072L15.3916 26.3457C15.3916 26.3457 4.33608 18.1292 13.8872 5.95347C14.9997 4.63451 15.9578 3.29426 16.1541 3.01596C16.1746 2.99468 16.2053 2.99468 16.2258 3.01596C16.4214 3.29426 17.3794 4.63451 18.4928 5.95347C28.0439 18.1292 16.9883 26.3457 16.9781 26.3354ZM16.8133 25.521V25.5005L16.2156 12.2424C16.2156 12.2014 16.1541 12.2014 16.1541 12.2424L15.5564 25.5005V25.521C15.6905 25.7371 16.1848 26.1604 16.1848 26.1604C16.1848 26.1604 16.6792 25.7371 16.8133 25.521Z" fill="#61DAFB"/>
</svg>
