<svg width="32" height="32" viewBox="0 0 32 32" fill="none" xmlns="http://www.w3.org/2000/svg">
<path d="M15.1322 2.75707C15.0752 2.76225 14.8939 2.78038 14.7307 2.79333C10.9668 3.13263 7.44124 5.16322 5.20831 8.28422C3.96491 10.0196 3.16965 11.988 2.86916 14.073C2.76295 14.8008 2.75 15.0157 2.75 16.0025C2.75 16.9893 2.76295 17.2043 2.86916 17.9321C3.5893 22.9076 7.1304 27.0879 11.933 28.6368C12.793 28.9139 13.6997 29.1029 14.7307 29.2169C15.1322 29.2611 16.8678 29.2611 17.2693 29.2169C19.0489 29.0201 20.5565 28.5798 22.0435 27.8209C22.2714 27.7043 22.3155 27.6732 22.2844 27.6474C22.2636 27.6318 21.2922 26.329 20.1265 24.7543L18.0076 21.8923L15.3524 17.9632C13.8914 15.8031 12.6894 14.0367 12.6791 14.0367C12.6687 14.0341 12.6583 15.7798 12.6532 17.9114C12.6454 21.6436 12.6428 21.7939 12.5962 21.8819C12.5288 22.0088 12.477 22.0606 12.3682 22.1176C12.2853 22.1591 12.2128 22.1668 11.8217 22.1668H11.3735L11.2544 22.0917C11.1766 22.0425 11.1197 21.9778 11.0808 21.9027L11.0264 21.7861L11.0316 16.5931L11.0393 11.3974L11.1197 11.2964C11.1611 11.242 11.2492 11.1721 11.3113 11.1384C11.4175 11.0866 11.459 11.0815 11.9071 11.0815C12.4356 11.0815 12.5237 11.1022 12.6609 11.2524C12.6998 11.2938 14.1375 13.4591 15.8575 16.0673C17.5776 18.6755 19.9297 22.2368 21.085 23.985L23.1832 27.163L23.2894 27.0931C24.2298 26.4818 25.2245 25.6116 26.012 24.7051C27.688 22.7807 28.7682 20.4341 29.1308 17.9321C29.237 17.2043 29.25 16.9893 29.25 16.0025C29.25 15.0157 29.237 14.8008 29.1308 14.073C28.4107 9.09748 24.8696 4.91716 20.067 3.36832C19.2199 3.09378 18.3184 2.9047 17.3082 2.79074C17.0595 2.76484 15.3472 2.73635 15.1322 2.75707ZM20.5565 10.7706C20.6809 10.8328 20.7819 10.952 20.8182 11.0763C20.8389 11.1436 20.8441 12.5837 20.8389 15.829L20.8311 20.4859L20.01 19.2271L19.1862 17.9684V14.5832C19.1862 12.3946 19.1966 11.1644 19.2121 11.1048C19.2536 10.9597 19.3442 10.8458 19.4686 10.7784C19.5748 10.724 19.6136 10.7189 20.0203 10.7189C20.4037 10.7189 20.4711 10.724 20.5565 10.7706Z" fill="#61DAFB"/>
</svg>
