<svg width="32" height="32" viewBox="0 0 32 32" fill="none" xmlns="http://www.w3.org/2000/svg">
<path d="M14.915 3.03272C15.5721 2.65661 16.4279 2.65491 17.0844 3.03272C20.3873 4.899 23.6912 6.76236 26.9935 8.62978C27.6146 8.97964 28.03 9.67089 28.0237 10.3866V21.6149C28.0283 22.3602 27.5718 23.0679 26.9165 23.4099C23.6245 25.2659 20.3342 27.1241 17.0428 28.9801C16.3721 29.3636 15.4991 29.3341 14.8494 28.9192C13.8625 28.347 12.8738 27.7777 11.8868 27.2062C11.6851 27.0859 11.4577 26.9902 11.3153 26.7947C11.4412 26.625 11.6663 26.6038 11.8492 26.5297C12.2612 26.3987 12.6396 26.1885 13.018 25.9844C13.1137 25.9189 13.2306 25.944 13.3223 26.0026C14.1663 26.4865 15.0028 26.9845 15.8496 27.4637C16.0302 27.568 16.2131 27.4296 16.3675 27.3435C19.598 25.5177 22.8324 23.6988 26.0623 21.8724C26.182 21.8149 26.2481 21.6878 26.2384 21.5567C26.2407 17.8527 26.239 14.1481 26.2395 10.4441C26.2532 10.2954 26.1672 10.1586 26.0327 10.0978C22.7521 8.25027 19.4732 6.39994 16.1932 4.55196C16.1364 4.51289 16.069 4.49193 16.0001 4.49183C15.9311 4.49173 15.8637 4.5125 15.8068 4.5514C12.5268 6.39994 9.24848 8.25197 5.96846 10.0994C5.83444 10.1603 5.7445 10.2948 5.76045 10.4441C5.76102 14.1481 5.76045 17.8527 5.76045 21.5573C5.75476 21.6212 5.76881 21.6854 5.8007 21.7412C5.8326 21.7969 5.8808 21.8415 5.93883 21.869C6.81412 22.3654 7.69053 22.8582 8.56639 23.3529C9.05981 23.6185 9.66564 23.7763 10.2093 23.5728C10.689 23.4007 11.0253 22.9112 11.0161 22.4018C11.0207 18.7194 11.0139 15.0365 11.0195 11.3547C11.0075 11.1913 11.1626 11.0562 11.3215 11.0716C11.7421 11.0688 12.1632 11.0659 12.5838 11.0727C12.7593 11.0688 12.8801 11.2448 12.8584 11.4095C12.8567 15.1151 12.863 18.8209 12.8556 22.5266C12.8567 23.5142 12.451 24.5888 11.5375 25.072C10.4121 25.655 9.02111 25.5314 7.90931 24.9724C6.94682 24.492 6.0283 23.925 5.08289 23.4104C4.42591 23.0703 3.97165 22.3597 3.97628 21.615V10.3866C3.96939 9.65607 4.40137 8.95227 5.04184 8.6075C8.33327 6.75 11.6241 4.89107 14.915 3.03272Z" fill="#61DAFB"/>
<path d="M17.7864 10.8106C19.2219 10.7182 20.7587 10.7559 22.0505 11.4631C23.0507 12.005 23.6052 13.1424 23.6228 14.2536C23.5949 14.4034 23.4382 14.4861 23.2951 14.4758C22.8786 14.4753 22.462 14.4815 22.0455 14.473C21.8688 14.4798 21.7662 14.3169 21.744 14.1607C21.6243 13.629 21.3344 13.1025 20.834 12.8461C20.0658 12.4615 19.1751 12.4808 18.3375 12.4888C17.726 12.5213 17.0685 12.5742 16.5504 12.9338C16.1527 13.2062 16.0319 13.7561 16.1738 14.1989C16.3077 14.5169 16.6747 14.6195 16.975 14.714C18.705 15.1665 20.5383 15.1215 22.2352 15.7169C22.9378 15.9597 23.6251 16.4316 23.8656 17.1672C24.1801 18.1531 24.0422 19.3315 23.3408 20.123C22.772 20.7743 21.9435 21.1288 21.1172 21.3214C20.0179 21.5665 18.8772 21.5727 17.7608 21.4639C16.7111 21.3442 15.6188 21.0684 14.8084 20.3532C14.1155 19.7515 13.777 18.814 13.8106 17.9092C13.8186 17.7564 13.9708 17.6498 14.1172 17.6624C14.5366 17.659 14.956 17.6579 15.3755 17.663C15.543 17.651 15.6672 17.7958 15.6758 17.9537C15.7532 18.4602 15.9435 18.9918 16.3852 19.2922C17.2377 19.8421 18.3073 19.8045 19.2834 19.8198C20.092 19.784 20.9998 19.7731 21.6597 19.2387C22.0079 18.9338 22.111 18.4238 22.0169 17.985C21.915 17.6146 21.5275 17.4419 21.1947 17.329C19.4869 16.7888 17.6331 16.9848 15.9418 16.3739C15.2552 16.1313 14.5912 15.6725 14.3275 14.9671C13.9594 13.9687 14.128 12.7338 14.903 11.9691C15.6586 11.2084 16.7494 10.9155 17.7864 10.8106Z" fill="#61DAFB"/>
</svg>
