<svg width="32" height="32" viewBox="0 0 32 32" fill="none" xmlns="http://www.w3.org/2000/svg">
<path fill-rule="evenodd" clip-rule="evenodd" d="M28.5531 18.0021C29.0765 18.0803 29.4812 18.4062 29.6357 18.8741C30.0864 20.2384 28.1722 21.249 27.5748 21.5262C26.8189 21.8774 25.588 22.0908 24.5813 22.0449L24.5347 22.0418L24.3539 22.0259L24.3378 22.163C24.33 22.2297 24.322 22.2998 24.3132 22.3731C24.2457 24.9671 23.8725 26.6134 23.1047 27.7064C22.2927 28.8626 21.1702 29.1853 20.1819 29.3971C19.9046 29.4565 19.5885 29.5 19.2571 29.5C18.5965 29.5 17.8752 29.3274 17.2788 28.7645C16.7033 28.2215 16.4769 27.5282 16.3415 27.1136L16.3412 27.1128C16.3201 27.0477 16.3 26.9863 16.2852 26.946C16.0138 26.2137 15.9222 25.1671 15.8682 23.821C15.8602 23.622 15.8542 23.4091 15.8481 23.192C15.8445 23.0581 15.8402 22.9031 15.8346 22.7409C14.9224 23.1409 13.8532 23.2122 12.7118 22.9269C12.3951 22.8477 12.0779 22.714 11.8186 22.5505C11.6144 22.4216 11.4605 22.2828 11.3451 22.1431C10.4352 22.9009 9.57004 22.7898 9.09388 22.6312C8.24433 22.3478 7.48757 21.5586 6.78033 20.2185C6.28162 19.2734 5.79953 18.0433 5.34743 16.562C4.56078 13.9849 4.06117 11.2674 4.01648 10.3743C3.87578 7.56124 4.63656 5.54711 6.2777 4.38786C7.633 3.43042 9.4859 3.13633 11.7849 3.51375C12.7623 3.67418 13.6088 3.9256 14.1362 4.10394C15.0888 3.53861 16.2036 3.26355 17.4654 3.28367C18.1386 3.29454 18.7801 3.35332 19.3767 3.4586C20.0175 3.25992 21.2459 2.98365 22.6452 3.00076C25.2682 3.03206 27.4425 4.05503 28.9328 5.95925C29.4959 6.67867 29.9778 8.26918 29.076 11.7605C28.5183 13.9197 27.5496 16.2134 26.3582 18.2248C26.6739 18.2159 27.1063 18.1702 27.6893 18.0499C28.0237 17.9809 28.3063 17.9652 28.5531 18.0021ZM28.9104 19.0692C28.7963 18.7241 28.4289 18.6131 27.8186 18.7391C26.0065 19.1131 25.3575 18.854 25.1444 18.6971C26.553 16.5514 27.7117 13.9575 28.3368 11.5375C28.6329 10.3911 28.7965 9.32647 28.8099 8.4587C28.8247 7.50629 28.6624 6.80639 28.3279 6.37885C26.979 4.65528 24.9993 3.73075 22.6029 3.70538C20.9554 3.68686 19.5635 4.10847 19.2937 4.22703C18.7254 4.08572 18.1059 3.99897 17.4315 3.9879C16.1948 3.96787 15.1257 4.26397 14.2406 4.86754C13.8562 4.72443 12.8626 4.38333 11.6475 4.18758C9.54679 3.84941 7.87747 4.10565 6.68622 4.94957C5.2648 5.95664 4.60858 7.75679 4.7357 10.2999C4.77847 11.1555 5.266 13.7876 6.03534 16.3083C7.04805 19.626 8.14891 21.5042 9.30715 21.8905C9.44272 21.9357 9.59903 21.9673 9.77143 21.9673C10.1939 21.9673 10.712 21.7769 11.2509 21.129C11.9083 20.3403 12.5883 19.5709 13.2901 18.8215C13.7454 19.0659 14.2457 19.2024 14.7572 19.2161L14.7591 19.2384L14.7608 19.2561C14.6727 19.3611 14.5865 19.4677 14.5021 19.5757L14.5021 19.5757C14.1476 20.0257 14.0738 20.1194 12.9328 20.3543L12.9322 20.3544C12.6072 20.4215 11.7462 20.5993 11.7335 21.2032C11.7198 21.8635 12.7526 22.1407 12.8702 22.1701C13.2803 22.2728 13.6753 22.3234 14.052 22.3234C14.9682 22.3234 15.7745 22.0223 16.4188 21.4396C16.399 23.7934 16.4971 26.1127 16.7797 26.8193L16.7798 26.8196C17.0114 27.3982 17.5769 28.8116 19.3627 28.8115C19.6248 28.8115 19.9132 28.781 20.2306 28.7129C22.0947 28.3134 22.9042 27.4895 23.2173 25.6731C23.3848 24.7024 23.6724 22.3844 23.8077 21.141C24.0931 21.2301 24.4605 21.2709 24.8578 21.2708C25.6863 21.2708 26.6424 21.0947 27.2419 20.8164C27.9154 20.5036 29.1308 19.7361 28.9104 19.0692ZM24.4713 10.6673C24.4652 11.0343 24.4146 11.3676 24.3611 11.7154C24.3034 12.0895 24.2439 12.4763 24.2289 12.9458C24.2141 13.4025 24.2711 13.8772 24.3262 14.3364L24.3262 14.3365L24.3263 14.3372C24.4378 15.2652 24.5522 16.2205 24.1093 17.1632C24.0357 17.0328 23.9702 16.8981 23.913 16.7597C23.858 16.6262 23.7384 16.4119 23.5728 16.1152L23.5728 16.1151C22.9288 14.9601 21.4206 12.2554 22.1927 11.1517C22.4227 10.8232 23.0063 10.4854 24.4713 10.6673ZM22.6955 4.44865C24.8427 4.49606 26.5412 5.29932 27.7437 6.83598C28.666 8.01465 27.6504 13.3778 24.7102 18.0046C24.6807 17.967 24.651 17.9295 24.6211 17.8922L24.5838 17.8457C25.3436 16.5909 25.1951 15.3494 25.0628 14.2488C25.0085 13.7971 24.9571 13.3704 24.9702 12.9697C24.9837 12.5449 25.0399 12.1806 25.0942 11.8283C25.1609 11.3942 25.2289 10.9451 25.2102 10.4156C25.2241 10.36 25.2298 10.2944 25.2224 10.2165C25.1746 9.70873 24.5949 8.18907 23.4133 6.81364C22.767 6.06131 21.8244 5.2194 20.5375 4.65156C21.091 4.53682 21.848 4.42983 22.6955 4.44865ZM10.6806 20.6547C10.087 21.3684 9.67709 21.2319 9.54204 21.187L9.54186 21.1869C8.66322 20.8938 7.64367 19.0367 6.7448 16.0918C5.967 13.5436 5.51249 10.9813 5.47646 10.2628C5.36293 7.99039 5.91376 6.40673 7.11377 5.55566C9.06671 4.17077 12.2775 4.99969 13.5677 5.42009C13.5595 5.42821 13.5511 5.4361 13.5428 5.44398L13.5427 5.44404C13.5322 5.45392 13.5217 5.46379 13.5115 5.47414C11.3944 7.61227 11.4446 11.2653 11.4498 11.4887C11.4496 11.5736 11.4567 11.6934 11.4663 11.8576V11.8576L11.4667 11.8646L11.4667 11.8648C11.5032 12.4793 11.571 13.6227 11.3898 14.9176C11.2215 16.121 11.5925 17.2989 12.4075 18.1492C12.4911 18.2363 12.579 18.3192 12.6708 18.3976C12.3081 18.7861 11.5198 19.6452 10.6806 20.6547ZM12.943 17.636C12.2862 16.9506 11.9879 15.9973 12.1244 15.0202C12.3157 13.6522 12.2451 12.4608 12.2072 11.8207L12.2063 11.8066L12.2063 11.8066C12.2013 11.7229 12.197 11.6493 12.1944 11.5907C12.5037 11.3165 13.937 10.5485 14.9591 10.7827C15.4255 10.8895 15.7098 11.2071 15.8279 11.7535C16.4394 14.5818 15.9089 15.7607 15.4826 16.708L15.4825 16.7082C15.3946 16.9033 15.3116 17.0878 15.2407 17.2786L15.1858 17.4262L15.1849 17.4287C15.0461 17.8007 14.9171 18.1467 14.8371 18.4753C14.1388 18.4733 13.4595 18.175 12.943 17.6359V17.636ZM13.0502 21.4505C12.8463 21.3996 12.6629 21.3111 12.5553 21.2378C12.6452 21.1955 12.8051 21.1379 13.0825 21.0807C14.4248 20.8045 14.6321 20.6094 15.0848 20.0346C15.1886 19.9028 15.3063 19.7534 15.4692 19.5715L15.4694 19.5713C15.7121 19.2995 15.8231 19.3456 16.0243 19.4291L16.0244 19.4291C16.1875 19.4966 16.3464 19.7011 16.4109 19.9261C16.4414 20.0324 16.4756 20.2341 16.3636 20.3911C15.4179 21.7152 14.0398 21.6982 13.0502 21.4505ZM20.0752 27.9877C18.433 28.3395 17.8516 27.5017 17.4685 26.5438C17.2212 25.9254 17.0996 23.1369 17.1858 20.0575C17.1869 20.0165 17.1811 19.977 17.1698 19.9397C17.1598 19.8662 17.1444 19.7935 17.1239 19.7221C16.9957 19.274 16.6832 18.8992 16.3083 18.7438L16.3083 18.7438C16.1593 18.6821 15.886 18.5689 15.5575 18.653C15.6275 18.3643 15.749 18.0383 15.8808 17.6853L15.936 17.5369C15.9976 17.3713 16.0747 17.1998 16.1562 17.0183L16.1588 17.0125C16.605 16.0214 17.216 14.6637 16.5529 11.5967C16.3045 10.448 15.475 9.88697 14.2175 10.0173C13.4636 10.0953 12.7739 10.3995 12.4299 10.5739C12.3559 10.6113 12.2883 10.6476 12.2251 10.6828C12.3211 9.52535 12.6838 7.36226 14.0407 5.99367C14.8951 5.13214 16.0329 4.70661 17.4192 4.72956C20.1508 4.77425 21.9024 6.17605 22.891 7.34425C23.7428 8.35081 24.2041 9.36482 24.3882 9.91173C23.0038 9.77093 22.0622 10.0442 21.585 10.7266C20.5466 12.2109 22.153 15.0918 22.9251 16.4764C23.0667 16.7301 23.1889 16.9494 23.2273 17.0426C23.4787 17.6519 23.8042 18.0587 24.0419 18.3556C24.1147 18.4466 24.1854 18.5349 24.2391 18.612C23.8198 18.7329 23.0667 19.0122 23.1353 20.4082C23.08 21.1087 22.6864 24.3884 22.4864 25.5471C22.2224 27.0779 21.6591 27.6481 20.0752 27.9878V27.9877ZM26.9296 20.1437C26.5008 20.3427 25.7833 20.492 25.1018 20.5241C24.3489 20.5593 23.9657 20.4397 23.8755 20.3662C23.8332 19.4962 24.157 19.4053 24.4997 19.3091L24.4997 19.3091C24.5535 19.294 24.6061 19.2792 24.6568 19.2615C24.6883 19.2871 24.7228 19.3126 24.7607 19.3375C25.3658 19.7369 26.445 19.78 27.9687 19.4655L27.9854 19.4622C27.7799 19.6543 27.4282 19.9121 26.9296 20.1437ZM14.8475 11.1685C14.5778 11.131 14.3335 11.1657 14.2099 11.2593C14.1405 11.3119 14.1189 11.3729 14.1131 11.4149C14.0976 11.5261 14.1755 11.6491 14.2234 11.7125C14.3589 11.8921 14.5568 12.0155 14.7526 12.0426C14.781 12.0467 14.8093 12.0485 14.8374 12.0485C15.164 12.0485 15.461 11.7941 15.4871 11.6064C15.5198 11.3713 15.1785 11.2145 14.8475 11.1685ZM23.7833 11.176C23.7575 10.9917 23.4296 10.9391 23.1184 10.9824C22.8076 11.0257 22.5063 11.166 22.5315 11.3507C22.5516 11.4943 22.811 11.7395 23.1179 11.7395C23.1439 11.7395 23.1701 11.7378 23.1964 11.734C23.4013 11.7057 23.5517 11.5755 23.6232 11.5005C23.7319 11.3862 23.7949 11.2588 23.7833 11.176Z" fill="#61DAFB"/>
</svg>
