<svg width="32" height="32" viewBox="0 0 32 32" fill="none" xmlns="http://www.w3.org/2000/svg">
<path d="M27.6336 12.9622C27.2175 11.2834 26.417 10.0194 24.7321 10.0194H22.5568V12.5961C22.5465 13.5595 22.1628 14.4813 21.4867 15.1676C20.8106 15.854 19.8946 16.2513 18.9315 16.2762H13.1333C12.361 16.2933 11.6259 16.6114 11.0848 17.1628C10.5437 17.7141 10.2394 18.455 10.2367 19.2276V24.7544C10.2367 26.3274 11.6053 27.2532 13.1394 27.7046C15.0271 28.2946 17.0499 28.2946 18.9376 27.7046C20.3974 27.2812 21.8391 26.4296 21.8391 24.7544V22.5415H16.036V21.8018H24.7357C26.4219 21.8018 27.0472 20.6254 27.6372 18.8589C28.2317 16.9381 28.2304 14.8823 27.6336 12.9622ZM19.2916 24.0172C19.5103 24.0138 19.725 24.0754 19.9087 24.1941C20.0924 24.3128 20.2368 24.4833 20.3235 24.6841C20.4103 24.8848 20.4356 25.1068 20.3963 25.3219C20.3569 25.5371 20.2546 25.7357 20.1024 25.8927C19.9501 26.0497 19.7547 26.1581 19.5409 26.204C19.3271 26.25 19.1045 26.2316 18.9011 26.151C18.6978 26.0704 18.5229 25.9314 18.3986 25.7514C18.2743 25.5715 18.2061 25.3587 18.2028 25.14V25.1194C18.2018 24.9752 18.2293 24.8322 18.2838 24.6987C18.3382 24.5652 18.4185 24.4437 18.52 24.3413C18.6215 24.2389 18.7422 24.1575 18.8753 24.1019C19.0083 24.0463 19.151 24.0175 19.2952 24.0172H19.2916Z" fill="#61DAFB"/>
<path d="M21.8329 12.5973V7.07042C21.7843 6.30559 21.4661 5.58276 20.9349 5.03037C20.4037 4.47798 19.6938 4.1318 18.9314 4.05334C17.932 3.88725 16.9202 3.80586 15.9071 3.81003C14.9773 3.81311 14.0494 3.89451 13.1333 4.05334C10.6771 4.48644 10.2306 5.39156 10.2306 7.07042V9.28213H16.036V10.0206H8.05293C7.1985 10.0048 6.36598 10.2915 5.7024 10.83C5.03882 11.3684 4.58686 12.1241 4.42636 12.9635C3.88132 14.8921 3.88132 16.934 4.42636 18.8626C4.83877 20.5852 5.82419 21.8018 7.51156 21.8018H9.50673V19.1497C9.52827 18.1964 9.91787 17.2885 10.5939 16.6161C11.2699 15.9437 12.1799 15.559 13.1333 15.5426H18.9314C19.3155 15.5402 19.6953 15.4621 20.0491 15.3127C20.4029 15.1633 20.7238 14.9455 20.9933 14.6719C21.2628 14.3983 21.4757 14.0743 21.6198 13.7182C21.7639 13.3622 21.8363 12.9813 21.8329 12.5973ZM12.8024 7.81131C12.6567 7.81356 12.5119 7.78698 12.3765 7.7331C12.2411 7.67922 12.1176 7.5991 12.0133 7.49734C11.9089 7.39559 11.8257 7.27421 11.7684 7.14019C11.7112 7.00617 11.6809 6.86214 11.6795 6.7164C11.679 6.71196 11.679 6.70746 11.6795 6.70302C11.6786 6.48458 11.7423 6.27076 11.8626 6.08845C11.9829 5.90615 12.1545 5.76351 12.3557 5.6785C12.5569 5.59348 12.7788 5.56989 12.9934 5.6107C13.208 5.6515 13.4057 5.75487 13.5617 5.9078C13.7176 6.06073 13.8249 6.25638 13.8699 6.47013C13.9149 6.68387 13.8957 6.90616 13.8146 7.10901C13.7336 7.31185 13.5944 7.48619 13.4145 7.61008C13.2346 7.73397 13.022 7.80186 12.8036 7.80522L12.8024 7.81131Z" fill="#61DAFB"/>
</svg>
