<svg width="32" height="32" viewBox="0 0 32 32" fill="none" xmlns="http://www.w3.org/2000/svg">
<path d="M21.3281 4.21092C20.8678 4.22032 20.3768 4.32916 19.875 4.51366C18.8713 4.88266 17.7809 5.56805 16.6719 6.53319C16.4558 6.72122 16.2405 7.01393 16.0234 7.22264C15.8718 7.07729 15.724 6.86717 15.5723 6.73241C14.3981 5.68985 13.2448 4.95716 12.1875 4.56249C11.6589 4.36515 11.143 4.24801 10.6621 4.23632C10.1812 4.22462 9.7355 4.31894 9.3418 4.54686C8.58107 4.98725 8.16398 5.85436 7.98242 6.90819C7.80087 7.96202 7.8505 9.24856 8.13281 10.6914C8.18947 10.981 8.33894 11.3235 8.41406 11.625C8.07708 11.7209 7.65879 11.7685 7.34766 11.8769C5.9754 12.3554 4.8646 12.9558 4.06641 13.6387C3.26821 14.3216 2.75 15.1138 2.75 15.9785C2.75 16.8705 3.29375 17.6938 4.13477 18.4141C4.97578 19.1343 6.14961 19.7713 7.5957 20.2656C7.83333 20.3468 8.14877 20.3733 8.40039 20.4453C8.32109 20.7655 8.16157 21.1317 8.10352 21.4375C7.83242 22.8653 7.79742 24.1275 7.99023 25.1601C8.18305 26.1927 8.61035 27.0368 9.35937 27.4687C10.132 27.9143 11.1181 27.8531 12.1621 27.4844C13.2062 27.1156 14.3455 26.4179 15.4961 25.4121C15.685 25.2469 15.8648 24.9865 16.0527 24.8047C16.2908 25.0336 16.5295 25.3534 16.7656 25.5566C17.8672 26.5046 18.9427 27.165 19.9336 27.5137C20.9245 27.8623 21.8689 27.9137 22.6172 27.4805C23.3891 27.0336 23.8293 26.1512 24.0312 25.0625C24.2332 23.9738 24.1991 22.6378 23.9023 21.1387C23.8566 20.9074 23.7289 20.6382 23.6699 20.4004C23.8446 20.3489 24.0686 20.331 24.2363 20.2754C25.7269 19.7815 26.9393 19.1509 27.8105 18.4336C28.6818 17.7163 29.25 16.8883 29.25 15.9785C29.25 15.0995 28.7078 14.3042 27.8867 13.6191C27.0657 12.934 25.9292 12.3321 24.5391 11.8535C24.2681 11.7602 23.9066 11.7205 23.6172 11.6367C23.6671 11.4335 23.7756 11.2019 23.8164 11.0039C24.1332 9.46599 24.192 8.09941 24.0059 6.98632C23.8198 5.87322 23.3878 4.96623 22.5996 4.51171C22.2189 4.29215 21.7884 4.20153 21.3281 4.21092ZM21.332 5.34764C21.629 5.34016 21.8652 5.39527 22.0332 5.49217C22.3888 5.69723 22.7344 6.24927 22.8887 7.17186C23.0429 8.09445 23.0042 9.34245 22.709 10.7754C22.671 10.9597 22.5647 11.1861 22.5176 11.3769C21.424 11.1224 20.2783 10.9356 19.0195 10.8164C18.2935 9.78158 17.5545 8.88188 16.7871 8.05663C16.996 7.85503 17.2101 7.56587 17.416 7.38671C18.4461 6.49026 19.4423 5.87887 20.2656 5.57616C20.6773 5.4248 21.0351 5.35512 21.332 5.34764ZM10.6543 5.37499C10.971 5.38406 11.3529 5.45947 11.791 5.62303C12.6673 5.95015 13.7283 6.60867 14.8223 7.58007C14.9634 7.70537 15.1078 7.91029 15.25 8.04686C14.4782 8.87235 13.7384 9.77759 13.002 10.8164C11.747 10.9331 10.6075 11.1137 9.51367 11.3633C9.44226 11.0779 9.29719 10.7438 9.24414 10.4726C8.98192 9.13252 8.95067 7.96411 9.09961 7.0996C9.24855 6.23508 9.57243 5.71976 9.9082 5.52538C10.0858 5.42255 10.3376 5.36591 10.6543 5.37499ZM16.0137 8.88085C16.5466 9.45871 17.0682 10.0148 17.5918 10.7148C17.0508 10.6882 16.557 10.6016 16 10.6016C15.4555 10.6016 14.9688 10.6874 14.4375 10.7129C14.9635 10.018 15.4797 9.45709 16.0137 8.88085ZM16 11.7324C16.8366 11.7324 17.5902 11.8406 18.3848 11.9023C18.8257 12.5524 19.2853 13.1549 19.6953 13.8633C20.1096 14.5789 20.4073 15.2782 20.7578 15.9883C20.4108 16.7053 20.1123 17.4151 19.6973 18.1348C19.2841 18.8512 18.827 19.4588 18.3867 20.1172C17.5926 20.1747 16.8302 20.2715 16 20.2715C15.1823 20.2715 14.4363 20.1802 13.6543 20.1289C13.2001 19.4679 12.7239 18.8647 12.3047 18.1406C11.8887 17.4221 11.6082 16.7211 11.2656 16.0078C11.6086 15.2917 11.8892 14.5862 12.3027 13.8691C12.7174 13.15 13.186 12.5572 13.6328 11.9043C14.4234 11.8438 15.1734 11.7324 16 11.7324ZM19.8125 12.0058C20.6733 12.1143 21.413 12.281 22.1758 12.4551C21.9434 13.1987 21.7277 13.921 21.3867 14.7168C21.1363 14.24 20.9498 13.7717 20.6738 13.2949C20.4051 12.8306 20.0952 12.4481 19.8125 12.0058ZM12.1953 12.0078C11.9083 12.4544 11.5929 12.8301 11.3203 13.3027C11.0481 13.7747 10.8802 14.2396 10.6367 14.7129C10.2995 13.9149 10.0735 13.1916 9.8418 12.4453C10.6032 12.2748 11.3375 12.1144 12.1953 12.0078ZM8.74023 12.7051C9.06883 13.7778 9.48213 14.8607 10.0098 16.0078C9.4742 17.1744 9.05705 18.2733 8.72461 19.3633C8.48955 19.2963 8.18188 19.2702 7.96289 19.1953C6.62382 18.7376 5.56517 18.1471 4.87109 17.5527C4.17702 16.9583 3.88281 16.3816 3.88281 15.9785C3.88281 15.5865 4.15104 15.0559 4.80078 14.5C5.45052 13.9441 6.44934 13.3886 7.7207 12.9453C8.01191 12.8438 8.42032 12.7956 8.74023 12.7051ZM23.2773 12.7148C23.5556 12.7949 23.9125 12.8352 24.1699 12.9238C25.4611 13.3683 26.4886 13.9262 27.1621 14.4883C27.8357 15.0503 28.1172 15.5905 28.1172 15.9785C28.1172 16.389 27.812 16.9641 27.0898 17.5586C26.3677 18.1531 25.2677 18.741 23.8789 19.2012C23.7194 19.254 23.4958 19.2731 23.3281 19.3223C22.9879 18.2367 22.5693 17.1382 22.0215 15.9844C22.5466 14.8529 22.9498 13.7787 23.2773 12.7148ZM16 13.6113C15.6891 13.6112 15.3812 13.6724 15.094 13.7913C14.8067 13.9102 14.5457 14.0846 14.3259 14.3044C14.1061 14.5242 13.9317 14.7852 13.8128 15.0725C13.6939 15.3597 13.6327 15.6676 13.6328 15.9785C13.6331 16.606 13.8827 17.2078 14.3266 17.6513C14.7705 18.0949 15.3725 18.344 16 18.3437C16.6275 18.344 17.2295 18.0949 17.6734 17.6513C18.1173 17.2078 18.3669 16.606 18.3672 15.9785C18.3673 15.6676 18.3061 15.3597 18.1872 15.0725C18.0683 14.7852 17.8939 14.5242 17.6741 14.3044C17.4543 14.0846 17.1933 13.9102 16.906 13.7913C16.6188 13.6724 16.3109 13.6112 16 13.6113ZM21.3926 17.2558C21.7504 18.0694 21.9784 18.808 22.2207 19.5664C21.4426 19.7432 20.6865 19.9203 19.8027 20.0254C20.0905 19.5707 20.4028 19.176 20.6777 18.6992C20.9562 18.2164 21.1423 17.7398 21.3926 17.2558ZM10.6406 17.3008C10.8844 17.7731 11.0525 18.2343 11.3262 18.707C11.6068 19.1918 11.9336 19.5819 12.2305 20.041C11.3524 19.9442 10.6024 19.7756 9.82812 19.6074C10.0636 18.8477 10.2969 18.1148 10.6406 17.3008ZM22.5645 20.6465C22.6211 20.8728 22.748 21.1402 22.791 21.3574C23.0658 22.7456 23.0846 23.957 22.918 24.8555C22.7513 25.7539 22.3997 26.298 22.0508 26.5C21.7115 26.6964 21.1172 26.7291 20.3105 26.4453C19.5039 26.1615 18.5245 25.5774 17.5039 24.6992C17.2804 24.5069 17.0445 24.1908 16.8164 23.9707C17.575 23.1427 18.3063 22.246 19.0215 21.2109C20.2952 21.0979 21.457 20.9039 22.5645 20.6465ZM9.50391 20.6894C10.6107 20.9353 11.766 21.1205 13.0332 21.2226C13.7701 22.258 14.5063 23.1576 15.2773 23.9824C15.1014 24.1531 14.9247 24.4078 14.75 24.5605C13.6845 25.4919 12.6468 26.1136 11.7852 26.418C10.9236 26.7222 10.2751 26.6896 9.92578 26.4883C9.5862 26.2924 9.26046 25.7917 9.10352 24.9512C8.94656 24.1106 8.96563 22.9712 9.2168 21.6484C9.27175 21.359 9.42719 20.9967 9.50391 20.6894ZM17.6035 21.3008C17.0848 22.0068 16.5675 22.5661 16.0391 23.1484C15.5023 22.569 14.9869 22.0073 14.457 21.3086C14.9805 21.3295 15.4646 21.4023 16 21.4023C16.5559 21.4023 17.0607 21.3256 17.6035 21.3008Z" fill="#61DAFB"/>
</svg>
