<svg width="32" height="32" viewBox="0 0 32 32" fill="none" xmlns="http://www.w3.org/2000/svg">
<path d="M29.0611 15.6758L27.9493 14.987C27.9399 14.8786 27.9293 14.7705 27.9177 14.6628L28.8749 13.7714C28.9722 13.6807 29.0157 13.5465 28.9894 13.4169C28.9638 13.2864 28.8724 13.1791 28.7481 13.1332L27.5249 12.6774C27.4942 12.5715 27.4621 12.4664 27.4291 12.3608L28.1914 11.3023C28.2692 11.1946 28.2851 11.0546 28.2345 10.9325C28.1838 10.8102 28.0732 10.7226 27.9432 10.701L26.6542 10.4914C26.6041 10.3936 26.5519 10.2974 26.4992 10.2027L27.0412 9.01239C27.0966 8.89134 27.0852 8.75155 27.0113 8.64012C26.9376 8.52971 26.8127 8.46513 26.6795 8.47019L25.3703 8.51578C25.3026 8.43119 25.2338 8.34737 25.1636 8.26506L25.465 6.99123C25.4954 6.86182 25.4571 6.72532 25.3629 6.63162C25.2695 6.53792 25.1337 6.49917 25.0033 6.52956L23.7295 6.83093C23.6469 6.76103 23.5631 6.69189 23.4783 6.62428L23.5241 5.31499C23.5292 5.18254 23.4646 5.05668 23.3542 4.98324C23.2435 4.90929 23.1034 4.89815 22.9819 4.9531L21.7942 5.49505C21.6982 5.44237 21.6019 5.3902 21.5055 5.33981L21.2953 4.05078C21.274 3.92011 21.1864 3.80918 21.0638 3.75955C20.9415 3.70865 20.8004 3.72511 20.6941 3.8026L19.6355 4.56487C19.5311 4.5317 19.4263 4.49979 19.3215 4.4694L18.8656 3.24622C18.8193 3.12162 18.7119 3.0302 18.582 3.00437C18.4518 2.97879 18.3186 3.02209 18.2274 3.11883L17.336 4.07611C17.2284 4.0642 17.12 4.05332 17.0118 4.04445L16.323 2.93017C16.2534 2.81747 16.13 2.74884 15.9963 2.74884C15.8626 2.74884 15.7405 2.81747 15.6722 2.93017L14.9833 4.04445C14.875 4.05331 14.7666 4.0642 14.6592 4.07611L13.7678 3.11883C13.6773 3.02209 13.5431 2.97879 13.4132 3.00437C13.2828 3.03045 13.1754 3.12162 13.1296 3.24622L12.6737 4.4694C12.5679 4.49979 12.463 4.53195 12.3597 4.56487L11.3011 3.8026C11.1935 3.72485 11.0532 3.70839 10.9314 3.75955C10.8091 3.8102 10.7212 3.92112 10.6999 4.05078L10.4897 5.33981C10.3925 5.3902 10.2962 5.44212 10.201 5.49505L9.0133 4.9531C8.8925 4.89789 8.75246 4.90929 8.64103 4.98324C8.53061 5.05668 8.46603 5.18254 8.4711 5.31499L8.51668 6.62428C8.4321 6.69189 8.34827 6.76103 8.26546 6.83093L6.99163 6.52956C6.86222 6.49943 6.72572 6.53792 6.63202 6.63162C6.53781 6.72558 6.49957 6.86106 6.52996 6.99123L6.82879 8.26506C6.75915 8.34762 6.69027 8.43119 6.62265 8.51578L5.31336 8.47019C5.18142 8.46639 5.05505 8.52971 4.98161 8.64012C4.90766 8.75003 4.89652 8.89084 4.95147 9.01239L5.49342 10.2027C5.44075 10.2981 5.38858 10.3944 5.33818 10.4914L4.04916 10.701C3.91823 10.7223 3.80781 10.8099 3.75792 10.9325C3.70727 11.0553 3.72373 11.1959 3.80097 11.3023L4.56325 12.3608C4.53007 12.4654 4.49791 12.5705 4.46752 12.6774L3.24434 13.1332C3.12025 13.1796 3.02882 13.2869 3.00299 13.4169C2.97716 13.547 3.02047 13.6802 3.11746 13.7714L4.07473 14.6628C4.06283 14.7705 4.0522 14.8789 4.04308 14.987L2.93132 15.6758C2.81863 15.7455 2.75 15.8685 2.75 16.0025C2.75 16.1365 2.81863 16.2583 2.93132 16.3267L4.04308 17.0155C4.0522 17.1239 4.06283 17.232 4.07473 17.3397L3.11746 18.2311C3.02047 18.3215 2.97716 18.4557 3.00299 18.5856C3.02882 18.7161 3.12025 18.8232 3.24434 18.8693L4.46752 19.3251C4.49791 19.431 4.53007 19.5361 4.56325 19.6417L3.80097 20.7002C3.72348 20.8081 3.70702 20.9482 3.75792 21.07C3.80883 21.1928 3.91949 21.2804 4.05169 21.3014L5.34072 21.5111C5.39111 21.6089 5.44277 21.7051 5.49596 21.7998L4.95401 22.9876C4.8988 23.1084 4.9102 23.2484 4.98414 23.3598C5.05809 23.4705 5.18396 23.5351 5.3159 23.5298L6.62265 23.4839C6.69077 23.569 6.7594 23.6523 6.8293 23.7351L6.53047 25.009C6.50008 25.1381 6.53832 25.2724 6.63253 25.3661C6.72598 25.4605 6.86197 25.4983 6.99214 25.4679L8.26597 25.169C8.34878 25.2394 8.4326 25.3078 8.51719 25.3752L8.47161 26.6845C8.46651 26.8169 8.53112 26.9428 8.64154 27.0162C8.75145 27.0899 8.89225 27.1011 9.01381 27.0458L10.2015 26.5039C10.2973 26.5571 10.3935 26.6087 10.4902 26.6591L10.7004 27.9482C10.7217 28.0793 10.8093 28.1903 10.9319 28.2419C11.0542 28.2928 11.1953 28.2764 11.3016 28.1991L12.3602 27.4369C12.4648 27.47 12.5699 27.5024 12.6768 27.5328L13.1326 28.756C13.179 28.8801 13.2863 28.972 13.4163 28.9974C13.5464 29.0237 13.6796 28.9801 13.7708 28.8829L14.6622 27.9256C14.7699 27.938 14.8782 27.9484 14.9864 27.958L15.6752 29.0698C15.7446 29.182 15.8679 29.2511 15.9994 29.2511C16.1308 29.2511 16.2552 29.1822 16.3261 29.0698L17.0149 27.958C17.1233 27.9484 17.2314 27.938 17.339 27.9256L18.2305 28.8829C18.3209 28.9801 18.4551 29.0237 18.585 28.9974C18.7154 28.9718 18.8228 28.8801 18.8687 28.756L19.3245 27.5328C19.4304 27.5024 19.5355 27.47 19.6411 27.4369L20.6996 28.1991C20.8073 28.2764 20.9476 28.2928 21.0694 28.2419C21.1919 28.1915 21.2796 28.0804 21.3008 27.9482L21.511 26.6591C21.6083 26.6087 21.7045 26.5563 21.7997 26.5039L22.9875 27.0458C23.1083 27.1011 23.2483 27.0899 23.3597 27.0162C23.4702 26.9423 23.5345 26.8169 23.5297 26.6845L23.4841 25.3752C23.5687 25.3076 23.6525 25.2394 23.7351 25.169L25.0089 25.4679C25.1383 25.4983 25.2748 25.4606 25.3685 25.3661C25.4627 25.2721 25.5009 25.1371 25.4706 25.009L25.1717 23.7351C25.2416 23.6523 25.3105 23.569 25.3779 23.4839L26.6872 23.5298C26.8191 23.5351 26.9455 23.4705 27.0189 23.3598C27.0929 23.2494 27.1042 23.1089 27.0488 22.9876L26.5068 21.7998C26.5598 21.7039 26.6117 21.6076 26.6618 21.5111L27.9509 21.3014C28.082 21.2804 28.1924 21.1928 28.2421 21.07C28.2927 20.9477 28.2768 20.8066 28.199 20.7002L27.4368 19.6417C27.4697 19.5371 27.5018 19.432 27.5325 19.3251L28.7557 18.8693C28.88 18.8227 28.9717 18.7155 28.997 18.5856C29.0234 18.4555 28.9798 18.3223 28.8826 18.2311L27.9253 17.3397C27.9369 17.232 27.9476 17.1236 27.9569 17.0155L29.0687 16.3267C29.1814 16.2573 29.25 16.1339 29.25 16.0025C29.25 15.8711 29.1816 15.7467 29.0689 15.6758H29.0611ZM21.6156 24.9193C21.1902 24.8277 20.9217 24.4078 21.0129 23.9823C21.1038 23.5569 21.5219 23.2859 21.9474 23.3771C22.3728 23.468 22.6438 23.8886 22.5526 24.3141C22.4615 24.7395 22.0436 25.0105 21.6182 24.9193H21.6156ZM21.2383 22.3615C20.8508 22.2785 20.4684 22.5251 20.3874 22.9136L19.9923 24.7573C18.7742 25.3093 17.4092 25.6183 15.991 25.6183C14.5323 25.6183 13.1546 25.2967 11.9137 24.7193L11.5187 22.8756C11.4356 22.4882 11.0552 22.24 10.6678 22.3236L9.03938 22.673C8.73802 22.3615 8.45692 22.0298 8.1986 21.6803H16.1252C16.2149 21.6803 16.2746 21.6641 16.2746 21.5826V18.7715C16.2746 18.69 16.2149 18.6738 16.1252 18.6738H13.808V16.8985H16.3126C16.5413 16.8985 17.5358 16.9638 17.8524 18.2356C17.9519 18.6256 18.1715 19.8969 18.3209 20.3047C18.4698 20.7605 19.0756 21.6722 19.7213 21.6722H23.672C23.7168 21.6722 23.7647 21.6671 23.8151 21.658C23.5416 22.0303 23.2402 22.3823 22.9186 22.7115L21.2522 22.3545L21.2383 22.3615ZM10.2727 24.8813C9.84724 24.973 9.42938 24.702 9.33821 24.2761C9.24729 23.8506 9.51751 23.4302 9.94348 23.3391C10.3689 23.2482 10.7868 23.5191 10.878 23.9443C10.9689 24.3698 10.6984 24.7902 10.2727 24.8813ZM7.25906 12.7002C7.43532 13.0978 7.25602 13.5637 6.85893 13.741C6.46133 13.9175 5.99789 13.738 5.82062 13.3409C5.64334 12.9438 5.82366 12.4773 6.22075 12.3C6.61835 12.1238 7.08179 12.303 7.25906 12.7002ZM6.33471 14.8882L8.03146 14.1336C8.3936 13.9727 8.55822 13.5485 8.39614 13.1864L8.04666 12.3963H9.41925V18.5755H6.65886C6.41853 17.7297 6.28912 16.8382 6.28912 15.9164C6.28912 15.5644 6.30812 15.2174 6.34459 14.8756L6.33471 14.8882ZM13.7802 14.288V12.4647H17.047C17.216 12.4647 18.2398 12.6599 18.2398 13.4245C18.2398 14.0601 17.4548 14.288 16.809 14.288H13.77H13.7802ZM25.6574 15.9291C25.6574 16.1712 25.6485 16.4102 25.6309 16.6483H24.6356C24.5361 16.6483 24.4961 16.7136 24.4961 16.8111V17.267C24.4961 18.3407 23.8908 18.5763 23.359 18.6345C22.8525 18.6915 22.2928 18.4228 22.2244 18.1128C21.9256 16.4338 21.4292 16.0767 20.6442 15.4537C21.6192 14.8358 22.6322 13.9216 22.6322 12.6933C22.6322 11.3739 21.7281 10.5433 21.1127 10.1355C20.2466 9.56574 19.2893 9.45178 19.031 9.45178H8.74916C10.1446 7.89684 12.0414 6.79269 14.1686 6.38749L15.3817 7.65879C15.6552 7.94496 16.1085 7.95762 16.3972 7.68209L17.7546 6.38547C20.591 6.91475 22.9968 8.68241 24.3897 11.1212L23.4603 13.2181C23.3 13.5802 23.4636 14.0057 23.8249 14.1652L25.6129 14.9604C25.6438 15.277 25.66 15.5986 25.66 15.9227L25.6574 15.9291ZM15.3756 5.31803C15.6896 5.01667 16.1885 5.02933 16.4874 5.34361C16.7862 5.65763 16.7761 6.15653 16.4613 6.45789C16.1473 6.75926 15.6484 6.74659 15.3495 6.43206C15.0507 6.11804 15.0608 5.61939 15.3756 5.31803ZM24.5938 12.7382C24.7698 12.3406 25.2345 12.1608 25.6321 12.338C26.0297 12.5143 26.2095 12.9813 26.0322 13.3789C25.8562 13.7765 25.3915 13.9563 24.9939 13.779C24.5963 13.6027 24.4165 13.1358 24.5938 12.7382Z" fill="#61DAFB"/>
</svg>
