<svg width="32" height="32" viewBox="0 0 32 32" fill="none" xmlns="http://www.w3.org/2000/svg">
<path fill-rule="evenodd" clip-rule="evenodd" d="M11.9019 21.3186C11.373 21.4574 10.872 21.6864 10.4197 21.9987C11.4513 21.3458 13.1894 21.4768 15.0957 21.6205C17.8698 21.8297 20.9999 22.0657 22.8271 19.9514C25.3183 17.0574 24.358 12.0537 23.5021 8.83359C22.4235 10.7421 19.9879 12.0954 17.9421 12.4424C17.0971 12.5859 16.2171 12.5682 15.3442 12.5506C14.2329 12.5283 13.1331 12.5062 12.1315 12.8171C8.03978 14.0871 7.78928 18.8341 9.91865 20.0416L10.0161 20.1249C10.0369 20.1249 13.7668 19.7224 15.59 19.1811C18.2622 18.3899 21.2823 16.2108 22.4026 13.5181C21.7207 16.3426 19.0763 18.9382 16.5155 20.0416C15.3971 20.5254 14.5172 20.7244 13.0011 21.0675C12.6684 21.1427 12.3051 21.2249 11.9019 21.3186ZM7.49701 21.3255C7.51093 21.9154 7.99803 22.3804 8.58953 22.3665C9.17406 22.3526 9.64026 21.8738 9.63334 21.2839V21.2769C9.61942 20.687 9.13231 20.2221 8.54082 20.2359C7.94932 20.2498 7.48315 20.7356 7.49701 21.3255ZM29.2 15.95C29.2 23.2678 23.2678 29.2 15.95 29.2C8.63224 29.2 2.70001 23.2678 2.70001 15.95C2.70001 8.63224 8.63224 2.70001 15.95 2.70001C23.2678 2.70001 29.2 8.63224 29.2 15.95Z" fill="#61DAFB"/>
</svg>
