<svg width="32" height="32" viewBox="0 0 32 32" fill="none" xmlns="http://www.w3.org/2000/svg">
<path d="M5.33789 2.75C3.9042 2.75 2.75 3.9042 2.75 5.33789V26.6621C2.75 28.0958 3.9042 29.25 5.33789 29.25H26.6621C28.0958 29.25 29.25 28.0958 29.25 26.6621V5.33789C29.25 3.9042 28.0958 2.75 26.6621 2.75H5.33789ZM23.666 15.0684C24.2708 15.0684 24.8063 15.1049 25.2734 15.1777C25.7406 15.2506 26.1722 15.3625 26.5664 15.5137V17.9355C26.372 17.8006 26.1592 17.6807 25.9297 17.5781C25.7001 17.4756 25.4637 17.3917 25.2207 17.3242C24.9776 17.2568 24.7364 17.2062 24.4961 17.1738C24.2558 17.1415 24.0285 17.125 23.8125 17.125C23.5155 17.125 23.245 17.1543 23.002 17.2109C22.7589 17.2676 22.5542 17.3467 22.3867 17.4492C22.2193 17.5518 22.0899 17.6733 21.998 17.8164C21.9062 17.9595 21.8594 18.1207 21.8594 18.2988C21.8594 18.4932 21.9111 18.6684 22.0137 18.8223C22.1163 18.9761 22.2621 19.1201 22.4512 19.2578C22.6402 19.3954 22.8686 19.5318 23.1387 19.6641C23.4087 19.7963 23.7145 19.9319 24.0547 20.0723C24.5191 20.2666 24.9367 20.4728 25.3066 20.6914C25.6766 20.91 25.9932 21.1563 26.2578 21.4316C26.5224 21.7069 26.7248 22.0214 26.8652 22.375C27.0057 22.7286 27.0762 23.1417 27.0762 23.6113C27.0762 24.2591 26.9527 24.8022 26.707 25.2422C26.4613 25.6821 26.1282 26.038 25.707 26.3105C25.2858 26.5832 24.7953 26.7797 24.2363 26.8984C23.6774 27.0172 23.0878 27.0762 22.4668 27.0762C21.8296 27.0762 21.2236 27.022 20.6484 26.9141C20.0733 26.8061 19.5755 26.6437 19.1543 26.4277V23.8379C19.6241 24.232 20.1347 24.5276 20.6855 24.7246C21.2364 24.9216 21.7919 25.0195 22.3535 25.0195C22.683 25.0195 22.971 24.9891 23.2168 24.9297C23.4625 24.8703 23.6673 24.7889 23.832 24.6836C23.9967 24.5783 24.1202 24.4536 24.2012 24.3105C24.2822 24.1675 24.3223 24.013 24.3223 23.8457C24.3223 23.6189 24.2566 23.4164 24.127 23.2383C23.9973 23.0601 23.8218 22.8953 23.5977 22.7441C23.3736 22.593 23.1066 22.447 22.7988 22.3066C22.491 22.1663 22.1591 22.0227 21.8027 21.877C20.8955 21.4991 20.2189 21.0393 19.7734 20.4941C19.3279 19.9489 19.1055 19.2895 19.1055 18.5176C19.1055 17.913 19.2277 17.3935 19.4707 16.959C19.7137 16.5244 20.0444 16.1675 20.4629 15.8867C20.8815 15.606 21.3652 15.3998 21.916 15.2676C22.4668 15.1353 23.0504 15.0684 23.666 15.0684ZM8.85742 15.3262H18.1211V17.4531H14.7988V26.9199H12.166V17.4531H8.85742V15.3262Z" fill="#61DAFB"/>
</svg>
